<svg width="354" height="192" viewBox="0 0 354 192" fill="none" xmlns="http://www.w3.org/2000/svg">
<g clip-path="url(#clip0_16_2)">
<rect width="354" height="192" fill="#B7B7B7"/>
<path d="M0 0H354V68C354 96.1665 331.167 119 303 119H51C22.8335 119 0 96.1665 0 68V0Z" fill="black"/>
<rect x="21" y="136" width="312" height="90" rx="40" fill="url(#paint0_linear_16_2)"/>
<path d="M112.931 42.45H121.431L126.431 65.55L125.331 65.05L134.281 48L136.431 57.95L123.031 80.7L112.931 42.45ZM131.381 42.45H138.581L144.881 64.8L143.631 64.6L153.081 42.45H160.881L141.981 80.6L131.381 42.45ZM165.852 79.5C164.418 79.5333 163.018 79.1333 161.652 78.3C160.285 77.4667 159.152 76.25 158.252 74.65C157.385 73.05 156.952 71.1167 156.952 68.85C156.952 67.2167 157.252 65.65 157.852 64.15C158.452 62.6167 159.302 61.25 160.402 60.05C161.502 58.8167 162.802 57.85 164.302 57.15C165.802 56.4167 167.452 56.05 169.252 56.05C170.718 56.05 171.902 56.2167 172.802 56.55C173.735 56.8833 174.485 57.3167 175.052 57.85C175.618 58.35 176.102 58.9 176.502 59.5L176.052 60.55L177.152 57.15H183.652L181.002 79H174.002L174.552 74.25L174.952 75.75C174.885 75.75 174.652 75.95 174.252 76.35C173.852 76.7167 173.268 77.15 172.502 77.65C171.768 78.15 170.835 78.6 169.702 79C168.602 79.3667 167.318 79.5333 165.852 79.5ZM169.802 73.9C170.468 73.9 171.102 73.7833 171.702 73.55C172.335 73.2833 172.935 72.9167 173.502 72.45C174.068 71.95 174.568 71.3333 175.002 70.6L175.652 65.25C175.485 64.5167 175.168 63.9 174.702 63.4C174.235 62.8667 173.652 62.4667 172.952 62.2C172.252 61.9 171.452 61.75 170.552 61.75C169.418 61.75 168.452 61.95 167.652 62.35C166.852 62.75 166.185 63.2667 165.652 63.9C165.152 64.5333 164.785 65.2167 164.552 65.95C164.318 66.65 164.202 67.3333 164.202 68C164.202 69.2 164.435 70.25 164.902 71.15C165.368 72.0167 166.018 72.7 166.852 73.2C167.718 73.6667 168.702 73.9 169.802 73.9ZM193.06 39.55H200.06L195.26 79H188.26L193.06 39.55ZM208.168 47.55H215.168L214.018 57.05H219.318L218.668 62.5H213.368L211.368 79H204.368L206.368 62.5H202.968L203.618 57.05H207.018L208.168 47.55ZM227.396 62.85C226.196 62.85 225.196 62.4167 224.396 61.55C223.629 60.6833 223.329 59.5167 223.496 58.05L223.846 55.05H229.096L229.046 55.75C228.946 56.45 229.012 56.8667 229.246 57C229.479 57.1 229.912 57.15 230.546 57.15H244.396L230.146 74.75L229.046 73.3H242.296L241.596 79H219.446L234.096 60.85L234.896 62.85H227.396Z" fill="url(#paint1_linear_16_2)"/>
<rect y="1" width="354" height="191" fill="#040404" fill-opacity="0.38"/>
</g>
<defs>
<linearGradient id="paint0_linear_16_2" x1="21" y1="181" x2="333" y2="181" gradientUnits="userSpaceOnUse">
<stop stop-color="#233D9A"/>
<stop offset="1" stop-color="#0C1534"/>
</linearGradient>
<linearGradient id="paint1_linear_16_2" x1="50.1961" y1="32.5" x2="272.435" y2="34.4633" gradientUnits="userSpaceOnUse">
<stop stop-color="white"/>
<stop offset="1" stop-color="#CECECE"/>
</linearGradient>
<clipPath id="clip0_16_2">
<rect width="354" height="192" fill="white"/>
</clipPath>
</defs>
</svg>
