<svg width="354" height="192" viewBox="0 0 354 192" fill="none" xmlns="http://www.w3.org/2000/svg">
<g clip-path="url(#clip0_16_2)">
<rect width="354" height="192" fill="#B7B7B7"/>
<rect width="354" height="192" fill="black"/>
<path d="M97.555 66.678H108.095L114.295 95.322L112.931 94.702L124.029 73.56L126.695 85.898L110.079 114.108L97.555 66.678ZM120.433 66.678H129.361L137.173 94.392L135.623 94.144L147.341 66.678H157.013L133.577 113.984L120.433 66.678ZM163.176 112.62C161.399 112.661 159.663 112.165 157.968 111.132C156.274 110.099 154.868 108.59 153.752 106.606C152.678 104.622 152.14 102.225 152.14 99.414C152.14 97.3887 152.512 95.446 153.256 93.586C154 91.6847 155.054 89.99 156.418 88.502C157.782 86.9727 159.394 85.774 161.254 84.906C163.114 83.9967 165.16 83.542 167.392 83.542C169.211 83.542 170.678 83.7487 171.794 84.162C172.952 84.5753 173.882 85.1127 174.584 85.774C175.287 86.394 175.886 87.076 176.382 87.82L175.824 89.122L177.188 84.906H185.248L181.962 112H173.282L173.964 106.11L174.46 107.97C174.378 107.97 174.088 108.218 173.592 108.714C173.096 109.169 172.373 109.706 171.422 110.326C170.513 110.946 169.356 111.504 167.95 112C166.586 112.455 164.995 112.661 163.176 112.62ZM168.074 105.676C168.901 105.676 169.686 105.531 170.43 105.242C171.216 104.911 171.96 104.457 172.662 103.878C173.365 103.258 173.985 102.493 174.522 101.584L175.328 94.95C175.122 94.0407 174.729 93.276 174.15 92.656C173.572 91.9947 172.848 91.4987 171.98 91.168C171.112 90.796 170.12 90.61 169.004 90.61C167.599 90.61 166.4 90.858 165.408 91.354C164.416 91.85 163.59 92.4907 162.928 93.276C162.308 94.0613 161.854 94.9087 161.564 95.818C161.275 96.686 161.13 97.5333 161.13 98.36C161.13 99.848 161.42 101.15 161.998 102.266C162.577 103.341 163.383 104.188 164.416 104.808C165.491 105.387 166.71 105.676 168.074 105.676ZM196.914 63.082H205.594L199.642 112H190.962L196.914 63.082ZM215.648 73.002H224.328L222.902 84.782H229.474L228.668 91.54H222.096L219.616 112H210.936L213.416 91.54H209.2L210.006 84.782H214.222L215.648 73.002ZM239.49 91.974C238.002 91.974 236.762 91.4367 235.77 90.362C234.82 89.2873 234.448 87.8407 234.654 86.022L235.088 82.302H241.598L241.536 83.17C241.412 84.038 241.495 84.5547 241.784 84.72C242.074 84.844 242.611 84.906 243.396 84.906H260.57L242.9 106.73L241.536 104.932H257.966L257.098 112H229.632L247.798 89.494L248.79 91.974H239.49Z" fill="url(#paint0_linear_16_2)"/>
<rect y="1" width="354" height="191" fill="#040404" fill-opacity="0.38"/>
</g>
<defs>
<linearGradient id="paint0_linear_16_2" x1="50.1961" y1="91.9" x2="272.404" y2="95.1718" gradientUnits="userSpaceOnUse">
<stop stop-color="white"/>
<stop offset="1" stop-color="#CECECE"/>
</linearGradient>
<clipPath id="clip0_16_2">
<rect width="354" height="192" fill="white"/>
</clipPath>
</defs>
</svg>
