<svg width="24" height="24" viewBox="0 0 24 24" fill="none" xmlns="http://www.w3.org/2000/svg">
<path d="M20 4H4C2.9 4 2.01 4.9 2.01 6L2 18C2 19.1 2.9 20 4 20H20C21.1 20 22 19.1 22 18V6C22 4.9 21.1 4 20 4ZM20 8L12 13L4 8V6L12 11L20 6V8Z" fill="white"/>
<mask id="path-2-outside-1_371_4" maskUnits="userSpaceOnUse" x="11" y="11" width="13" height="13" fill="black">
<rect fill="white" x="11" y="11" width="13" height="13"/>
<path d="M20.6577 14.532V18.312C20.6577 18.634 20.8677 18.76 21.1617 18.76C21.7497 18.76 22.0717 17.738 22.0717 16.66C22.0717 14.182 20.1257 12.628 17.6897 12.628C15.0017 12.628 12.9437 14.546 12.9437 17.22C12.9437 19.852 14.9177 21.672 17.6897 21.672C18.9777 21.672 19.8877 21.294 20.9517 20.468L21.6097 21.518C20.5737 22.4 19.3837 22.89 17.7037 22.89C14.0637 22.89 11.6137 20.538 11.6137 17.276C11.6137 13.874 14.2737 11.41 17.6897 11.41C20.8537 11.41 23.3877 13.524 23.3877 16.66C23.3877 18.116 22.7997 20.006 20.4617 20.006C19.6777 20.006 18.9777 19.782 18.6277 19.124C18.2357 19.684 17.6197 19.978 16.8357 19.978C15.3937 19.978 14.2317 18.956 14.2317 17.178C14.2317 15.4 15.3937 14.378 16.8497 14.378C17.4937 14.378 18.0257 14.574 18.4037 14.952V14.532H20.6577ZM17.5917 18.018C18.0397 18.018 18.4037 17.668 18.4037 17.15C18.4037 16.632 18.0397 16.296 17.5917 16.296C17.1437 16.296 16.7657 16.632 16.7657 17.15C16.7657 17.668 17.1437 18.018 17.5917 18.018Z"/>
</mask>
<path d="M20.6577 14.532V18.312C20.6577 18.634 20.8677 18.76 21.1617 18.76C21.7497 18.76 22.0717 17.738 22.0717 16.66C22.0717 14.182 20.1257 12.628 17.6897 12.628C15.0017 12.628 12.9437 14.546 12.9437 17.22C12.9437 19.852 14.9177 21.672 17.6897 21.672C18.9777 21.672 19.8877 21.294 20.9517 20.468L21.6097 21.518C20.5737 22.4 19.3837 22.89 17.7037 22.89C14.0637 22.89 11.6137 20.538 11.6137 17.276C11.6137 13.874 14.2737 11.41 17.6897 11.41C20.8537 11.41 23.3877 13.524 23.3877 16.66C23.3877 18.116 22.7997 20.006 20.4617 20.006C19.6777 20.006 18.9777 19.782 18.6277 19.124C18.2357 19.684 17.6197 19.978 16.8357 19.978C15.3937 19.978 14.2317 18.956 14.2317 17.178C14.2317 15.4 15.3937 14.378 16.8497 14.378C17.4937 14.378 18.0257 14.574 18.4037 14.952V14.532H20.6577ZM17.5917 18.018C18.0397 18.018 18.4037 17.668 18.4037 17.15C18.4037 16.632 18.0397 16.296 17.5917 16.296C17.1437 16.296 16.7657 16.632 16.7657 17.15C16.7657 17.668 17.1437 18.018 17.5917 18.018Z" fill="white"/>
<path d="M20.6577 14.532H20.8577V14.332H20.6577V14.532ZM20.9517 20.468L21.1212 20.3618L21.0038 20.1744L20.8291 20.31L20.9517 20.468ZM21.6097 21.518L21.7394 21.6703L21.871 21.5582L21.7792 21.4118L21.6097 21.518ZM18.6277 19.124L18.8043 19.0301L18.651 18.7419L18.4639 19.0093L18.6277 19.124ZM18.4037 14.952L18.2623 15.0934L18.6037 15.4348V14.952H18.4037ZM18.4037 14.532V14.332H18.2037V14.532H18.4037ZM20.6577 14.532H20.4577V18.312H20.6577H20.8577V14.532H20.6577ZM20.6577 18.312H20.4577C20.4577 18.5198 20.5279 18.695 20.6742 18.8126C20.8127 18.924 20.9906 18.96 21.1617 18.96V18.76V18.56C21.0388 18.56 20.9647 18.533 20.9248 18.5009C20.8926 18.475 20.8577 18.4262 20.8577 18.312H20.6577ZM21.1617 18.76V18.96C21.5895 18.96 21.8641 18.5909 22.0233 18.1877C22.1892 17.767 22.2717 17.2153 22.2717 16.66H22.0717H21.8717C21.8717 17.1827 21.7932 17.681 21.6512 18.0408C21.5023 18.4181 21.3219 18.56 21.1617 18.56V18.76ZM22.0717 16.66H22.2717C22.2717 15.3648 21.7615 14.3018 20.9266 13.5648C20.0941 12.83 18.9495 12.428 17.6897 12.428V12.628V12.828C18.866 12.828 19.9123 13.203 20.6619 13.8647C21.409 14.5242 21.8717 15.4772 21.8717 16.66H22.0717ZM17.6897 12.628V12.428C14.8997 12.428 12.7437 14.4273 12.7437 17.22H12.9437H13.1437C13.1437 14.6647 15.1038 12.828 17.6897 12.828V12.628ZM12.9437 17.22H12.7437C12.7437 18.5884 13.2581 19.7554 14.1407 20.5792C15.0224 21.4021 16.2597 21.872 17.6897 21.872V21.672V21.472C16.3477 21.472 15.2121 21.0319 14.4137 20.2868C13.6164 19.5426 13.1437 18.4836 13.1437 17.22H12.9437ZM17.6897 21.672V21.872C19.0308 21.872 19.9828 21.4734 21.0744 20.626L20.9517 20.468L20.8291 20.31C19.7926 21.1146 18.9246 21.472 17.6897 21.472V21.672ZM20.9517 20.468L20.7822 20.5742L21.4402 21.6242L21.6097 21.518L21.7792 21.4118L21.1212 20.3618L20.9517 20.468ZM21.6097 21.518L21.4801 21.3657C20.4807 22.2165 19.3369 22.69 17.7037 22.69V22.89V23.09C19.4306 23.09 20.6667 22.5835 21.7394 21.6703L21.6097 21.518ZM17.7037 22.89V22.69C15.9271 22.69 14.4556 22.1166 13.4301 21.16C12.4055 20.2042 11.8137 18.8547 11.8137 17.276H11.6137H11.4137C11.4137 18.9593 12.047 20.4168 13.1573 21.4525C14.2668 22.4874 15.8403 23.09 17.7037 23.09V22.89ZM11.6137 17.276H11.8137C11.8137 13.9933 14.3751 11.61 17.6897 11.61V11.41V11.21C14.1723 11.21 11.4137 13.7547 11.4137 17.276H11.6137ZM17.6897 11.41V11.61C20.7648 11.61 23.1877 13.6548 23.1877 16.66H23.3877H23.5877C23.5877 13.3932 20.9426 11.21 17.6897 11.21V11.41ZM23.3877 16.66H23.1877C23.1877 17.3667 23.0441 18.1585 22.6354 18.7675C22.2349 19.3643 21.567 19.806 20.4617 19.806V20.006V20.206C21.6944 20.206 22.4895 19.7027 22.9675 18.9905C23.4373 18.2905 23.5877 17.4093 23.5877 16.66H23.3877ZM20.4617 20.006V19.806C19.7072 19.806 19.1027 19.5912 18.8043 19.0301L18.6277 19.124L18.4511 19.2179C18.8527 19.9728 19.6483 20.206 20.4617 20.206V20.006ZM18.6277 19.124L18.4639 19.0093C18.1151 19.5075 17.5654 19.778 16.8357 19.778V19.978V20.178C17.674 20.178 18.3563 19.8605 18.7916 19.2387L18.6277 19.124ZM16.8357 19.978V19.778C16.1627 19.778 15.5648 19.5402 15.1354 19.1044C14.7066 18.6692 14.4317 18.0221 14.4317 17.178H14.2317H14.0317C14.0317 18.1119 14.3378 18.8648 14.8505 19.3851C15.3626 19.9048 16.0667 20.178 16.8357 20.178V19.978ZM14.2317 17.178H14.4317C14.4317 16.3339 14.7066 15.687 15.1369 15.2519C15.5679 14.8162 16.1692 14.578 16.8497 14.578V14.378V14.178C16.0742 14.178 15.3666 14.4508 14.8525 14.9706C14.3379 15.491 14.0317 16.2441 14.0317 17.178H14.2317ZM16.8497 14.378V14.578C17.4525 14.578 17.9294 14.7605 18.2623 15.0934L18.4037 14.952L18.5451 14.8106C18.122 14.3875 17.5349 14.178 16.8497 14.178V14.378ZM18.4037 14.952H18.6037V14.532H18.4037H18.2037V14.952H18.4037ZM18.4037 14.532V14.732H20.6577V14.532V14.332H18.4037V14.532ZM17.5917 18.018V18.218C18.1567 18.218 18.6037 17.7718 18.6037 17.15H18.4037H18.2037C18.2037 17.5642 17.9227 17.818 17.5917 17.818V18.018ZM18.4037 17.15H18.6037C18.6037 16.5238 18.1524 16.096 17.5917 16.096V16.296V16.496C17.927 16.496 18.2037 16.7402 18.2037 17.15H18.4037ZM17.5917 16.296V16.096C17.0355 16.096 16.5657 16.5193 16.5657 17.15H16.7657H16.9657C16.9657 16.7447 17.252 16.496 17.5917 16.496V16.296ZM16.7657 17.15H16.5657C16.5657 17.7763 17.0311 18.218 17.5917 18.218V18.018V17.818C17.2563 17.818 16.9657 17.5597 16.9657 17.15H16.7657Z" fill="white" mask="url(#path-2-outside-1_371_4)"/>
<mask id="path-4-outside-2_371_4" maskUnits="userSpaceOnUse" x="11" y="11" width="13" height="13" fill="black">
<rect fill="white" x="11" y="11" width="13" height="13"/>
<path d="M20.6577 14.532V18.312C20.6577 18.634 20.8677 18.76 21.1617 18.76C21.7497 18.76 22.0717 17.738 22.0717 16.66C22.0717 14.182 20.1257 12.628 17.6897 12.628C15.0017 12.628 12.9437 14.546 12.9437 17.22C12.9437 19.852 14.9177 21.672 17.6897 21.672C18.9777 21.672 19.8877 21.294 20.9517 20.468L21.6097 21.518C20.5737 22.4 19.3837 22.89 17.7037 22.89C14.0637 22.89 11.6137 20.538 11.6137 17.276C11.6137 13.874 14.2737 11.41 17.6897 11.41C20.8537 11.41 23.3877 13.524 23.3877 16.66C23.3877 18.116 22.7997 20.006 20.4617 20.006C19.6777 20.006 18.9777 19.782 18.6277 19.124C18.2357 19.684 17.6197 19.978 16.8357 19.978C15.3937 19.978 14.2317 18.956 14.2317 17.178C14.2317 15.4 15.3937 14.378 16.8497 14.378C17.4937 14.378 18.0257 14.574 18.4037 14.952V14.532H20.6577ZM17.5917 18.018C18.0397 18.018 18.4037 17.668 18.4037 17.15C18.4037 16.632 18.0397 16.296 17.5917 16.296C17.1437 16.296 16.7657 16.632 16.7657 17.15C16.7657 17.668 17.1437 18.018 17.5917 18.018Z"/>
</mask>
<path d="M20.6577 14.532V18.312C20.6577 18.634 20.8677 18.76 21.1617 18.76C21.7497 18.76 22.0717 17.738 22.0717 16.66C22.0717 14.182 20.1257 12.628 17.6897 12.628C15.0017 12.628 12.9437 14.546 12.9437 17.22C12.9437 19.852 14.9177 21.672 17.6897 21.672C18.9777 21.672 19.8877 21.294 20.9517 20.468L21.6097 21.518C20.5737 22.4 19.3837 22.89 17.7037 22.89C14.0637 22.89 11.6137 20.538 11.6137 17.276C11.6137 13.874 14.2737 11.41 17.6897 11.41C20.8537 11.41 23.3877 13.524 23.3877 16.66C23.3877 18.116 22.7997 20.006 20.4617 20.006C19.6777 20.006 18.9777 19.782 18.6277 19.124C18.2357 19.684 17.6197 19.978 16.8357 19.978C15.3937 19.978 14.2317 18.956 14.2317 17.178C14.2317 15.4 15.3937 14.378 16.8497 14.378C17.4937 14.378 18.0257 14.574 18.4037 14.952V14.532H20.6577ZM17.5917 18.018C18.0397 18.018 18.4037 17.668 18.4037 17.15C18.4037 16.632 18.0397 16.296 17.5917 16.296C17.1437 16.296 16.7657 16.632 16.7657 17.15C16.7657 17.668 17.1437 18.018 17.5917 18.018Z" fill="black"/>
<path d="M20.6577 14.532H20.8577V14.332H20.6577V14.532ZM20.9517 20.468L21.1212 20.3618L21.0038 20.1744L20.8291 20.31L20.9517 20.468ZM21.6097 21.518L21.7394 21.6703L21.871 21.5582L21.7792 21.4118L21.6097 21.518ZM18.6277 19.124L18.8043 19.0301L18.651 18.7419L18.4639 19.0093L18.6277 19.124ZM18.4037 14.952L18.2623 15.0934L18.6037 15.4348V14.952H18.4037ZM18.4037 14.532V14.332H18.2037V14.532H18.4037ZM20.6577 14.532H20.4577V18.312H20.6577H20.8577V14.532H20.6577ZM20.6577 18.312H20.4577C20.4577 18.5198 20.5279 18.695 20.6742 18.8126C20.8127 18.924 20.9906 18.96 21.1617 18.96V18.76V18.56C21.0388 18.56 20.9647 18.533 20.9248 18.5009C20.8926 18.475 20.8577 18.4262 20.8577 18.312H20.6577ZM21.1617 18.76V18.96C21.5895 18.96 21.8641 18.5909 22.0233 18.1877C22.1892 17.767 22.2717 17.2153 22.2717 16.66H22.0717H21.8717C21.8717 17.1827 21.7932 17.681 21.6512 18.0408C21.5023 18.4181 21.3219 18.56 21.1617 18.56V18.76ZM22.0717 16.66H22.2717C22.2717 15.3648 21.7615 14.3018 20.9266 13.5648C20.0941 12.83 18.9495 12.428 17.6897 12.428V12.628V12.828C18.866 12.828 19.9123 13.203 20.6619 13.8647C21.409 14.5242 21.8717 15.4772 21.8717 16.66H22.0717ZM17.6897 12.628V12.428C14.8997 12.428 12.7437 14.4273 12.7437 17.22H12.9437H13.1437C13.1437 14.6647 15.1038 12.828 17.6897 12.828V12.628ZM12.9437 17.22H12.7437C12.7437 18.5884 13.2581 19.7554 14.1407 20.5792C15.0224 21.4021 16.2597 21.872 17.6897 21.872V21.672V21.472C16.3477 21.472 15.2121 21.0319 14.4137 20.2868C13.6164 19.5426 13.1437 18.4836 13.1437 17.22H12.9437ZM17.6897 21.672V21.872C19.0308 21.872 19.9828 21.4734 21.0744 20.626L20.9517 20.468L20.8291 20.31C19.7926 21.1146 18.9246 21.472 17.6897 21.472V21.672ZM20.9517 20.468L20.7822 20.5742L21.4402 21.6242L21.6097 21.518L21.7792 21.4118L21.1212 20.3618L20.9517 20.468ZM21.6097 21.518L21.4801 21.3657C20.4807 22.2165 19.3369 22.69 17.7037 22.69V22.89V23.09C19.4306 23.09 20.6667 22.5835 21.7394 21.6703L21.6097 21.518ZM17.7037 22.89V22.69C15.9271 22.69 14.4556 22.1166 13.4301 21.16C12.4055 20.2042 11.8137 18.8547 11.8137 17.276H11.6137H11.4137C11.4137 18.9593 12.047 20.4168 13.1573 21.4525C14.2668 22.4874 15.8403 23.09 17.7037 23.09V22.89ZM11.6137 17.276H11.8137C11.8137 13.9933 14.3751 11.61 17.6897 11.61V11.41V11.21C14.1723 11.21 11.4137 13.7547 11.4137 17.276H11.6137ZM17.6897 11.41V11.61C20.7648 11.61 23.1877 13.6548 23.1877 16.66H23.3877H23.5877C23.5877 13.3932 20.9426 11.21 17.6897 11.21V11.41ZM23.3877 16.66H23.1877C23.1877 17.3667 23.0441 18.1585 22.6354 18.7675C22.2349 19.3643 21.567 19.806 20.4617 19.806V20.006V20.206C21.6944 20.206 22.4895 19.7027 22.9675 18.9905C23.4373 18.2905 23.5877 17.4093 23.5877 16.66H23.3877ZM20.4617 20.006V19.806C19.7072 19.806 19.1027 19.5912 18.8043 19.0301L18.6277 19.124L18.4511 19.2179C18.8527 19.9728 19.6483 20.206 20.4617 20.206V20.006ZM18.6277 19.124L18.4639 19.0093C18.1151 19.5075 17.5654 19.778 16.8357 19.778V19.978V20.178C17.674 20.178 18.3563 19.8605 18.7916 19.2387L18.6277 19.124ZM16.8357 19.978V19.778C16.1627 19.778 15.5648 19.5402 15.1354 19.1044C14.7066 18.6692 14.4317 18.0221 14.4317 17.178H14.2317H14.0317C14.0317 18.1119 14.3378 18.8648 14.8505 19.3851C15.3626 19.9048 16.0667 20.178 16.8357 20.178V19.978ZM14.2317 17.178H14.4317C14.4317 16.3339 14.7066 15.687 15.1369 15.2519C15.5679 14.8162 16.1692 14.578 16.8497 14.578V14.378V14.178C16.0742 14.178 15.3666 14.4508 14.8525 14.9706C14.3379 15.491 14.0317 16.2441 14.0317 17.178H14.2317ZM16.8497 14.378V14.578C17.4525 14.578 17.9294 14.7605 18.2623 15.0934L18.4037 14.952L18.5451 14.8106C18.122 14.3875 17.5349 14.178 16.8497 14.178V14.378ZM18.4037 14.952H18.6037V14.532H18.4037H18.2037V14.952H18.4037ZM18.4037 14.532V14.732H20.6577V14.532V14.332H18.4037V14.532ZM17.5917 18.018V18.218C18.1567 18.218 18.6037 17.7718 18.6037 17.15H18.4037H18.2037C18.2037 17.5642 17.9227 17.818 17.5917 17.818V18.018ZM18.4037 17.15H18.6037C18.6037 16.5238 18.1524 16.096 17.5917 16.096V16.296V16.496C17.927 16.496 18.2037 16.7402 18.2037 17.15H18.4037ZM17.5917 16.296V16.096C17.0355 16.096 16.5657 16.5193 16.5657 17.15H16.7657H16.9657C16.9657 16.7447 17.252 16.496 17.5917 16.496V16.296ZM16.7657 17.15H16.5657C16.5657 17.7763 17.0311 18.218 17.5917 18.218V18.018V17.818C17.2563 17.818 16.9657 17.5597 16.9657 17.15H16.7657Z" fill="white" mask="url(#path-4-outside-2_371_4)"/>
</svg>
