<svg width="24" height="24" viewBox="0 0 24 24" fill="none" xmlns="http://www.w3.org/2000/svg">
<path fill-rule="evenodd" clip-rule="evenodd" d="M8.2861 15.5376C7.8736 16.9214 8.1629 18.8299 9.154 19.7385L9.1529 19.7374C9.16757 19.6875 9.17967 19.6413 9.1892 19.5988C9.23985 19.3269 9.38785 19.0827 9.6055 18.9121C9.82316 18.7414 10.0955 18.6559 10.3717 18.6715C10.947 18.6891 11.2539 18.9806 11.343 19.6351C11.3763 19.8801 11.379 20.1306 11.3818 20.3808C11.3821 20.4036 11.3823 20.4263 11.3826 20.4491C11.3833 20.9955 11.5406 21.5303 11.8358 21.9902C12.1182 22.437 12.5282 22.7888 13.0128 23L12.9754 22.8746C12.597 21.7086 12.8698 20.9078 13.8774 20.2236C13.9794 20.1544 14.0822 20.0864 14.185 20.0185C14.4124 19.868 14.6397 19.7177 14.8586 19.5548C15.6539 18.9652 16.1522 18.1875 16.2699 17.181C16.3183 16.7674 16.282 16.3615 16.1434 15.96C16.0824 15.9969 16.0244 16.0338 15.968 16.0697C15.8546 16.1419 15.7476 16.21 15.6352 16.2658C14.1623 16.9929 12.6047 17.082 11.0207 16.8422C9.9933 16.686 9.0011 16.4099 8.2861 15.5376Z" fill="#FF500C"/>
<path d="M3.5 15.3077C3.5 15.3077 6.4326 13.8744 9.374 13.8744L11.5916 6.9884C11.6741 6.654 11.9172 6.4274 12.19 6.4274C12.465 6.4274 12.707 6.654 12.7895 6.9884L15.0071 13.8744C18.4908 13.8744 20.8811 15.3077 20.8811 15.3077L15.8893 1.6622C15.7463 1.2596 15.5043 1 15.1798 1H9.2013C8.8757 1 8.6447 1.2596 8.4918 1.6622C8.4808 1.6886 3.5 15.3077 3.5 15.3077Z" fill="url(#paint0_linear_170_65)"/>
<defs>
<linearGradient id="paint0_linear_170_65" x1="12.1905" y1="1" x2="12.1905" y2="23" gradientUnits="userSpaceOnUse">
<stop stop-color="#030017"/>
<stop offset="1" stop-color="#23094A"/>
</linearGradient>
</defs>
</svg>
