<svg width="24" height="24" viewBox="0 0 24 24" fill="none" xmlns="http://www.w3.org/2000/svg">
<path d="M2 1L3.75333 20.6064L12 23L20.2967 20.6075L22 1H2ZM17.61 7.6528H12.0967H8.75L8.94111 9.8704H12.0967H17.4933L16.7978 17.0919L12.08 18.611L7.32333 17.0105L7.00333 13.7853H9.25222L9.43 15.3374L12.0967 16.2339L14.7033 15.3946L15.0333 12.0891H12.0967H6.90667L6.28222 5.4341H12.0667H17.8511L17.61 7.6528Z" fill="#E14E1D"/>
<path d="M8.75 7.6528L8.94111 9.8704H12.0967H17.4933L16.7978 17.0919L12.08 18.611L7.32333 17.0105L7.00333 13.7853H9.25222L9.43 15.3374L12.0967 16.2339L14.7033 15.3946L15.0333 12.0891H12.0967H6.90667L6.28222 5.4341H12.0667H17.8511L17.61 7.6528H12.0967H8.75Z" fill="url(#paint0_linear_170_80)"/>
<defs>
<linearGradient id="paint0_linear_170_80" x1="12" y1="1" x2="12" y2="23" gradientUnits="userSpaceOnUse">
<stop stop-color="white"/>
<stop offset="1" stop-color="#C7C7C7"/>
</linearGradient>
</defs>
</svg>
