<svg width="24" height="24" viewBox="0 0 24 24" fill="none" xmlns="http://www.w3.org/2000/svg">
<path d="M2 1L3.75333 20.6064L12 23L20.2967 20.6075L22 1H2ZM17.61 7.6528H12.0967H8.75L8.94111 9.8704H12.0967H17.4933L16.7978 17.0919L12.08 18.611L7.32333 17.0105L7.00333 13.7853H9.25222L9.43 15.3374L12.0967 16.2339L14.7033 15.3946L15.0333 12.0891H12.0967H6.90667L6.28222 5.4341H12.0667H17.8511L17.61 7.6528Z" fill="#E14E1D"/>
<path d="M16.7978 17.0919L17.4933 9.8704H12.0967V12.0891H15.0333L14.7033 15.3946L12.0967 16.2339L12.08 18.611L16.7978 17.0919Z" fill="white"/>
<path d="M7.32333 17.0105L12.08 18.611L12.0967 16.2339L9.43 15.3374L9.25222 13.7853H7.00333L7.32333 17.0105Z" fill="#EBEBEB"/>
<path d="M8.94111 9.8704L8.75 7.6528H12.0967L12.0667 5.4341H6.28222L6.90667 12.0891H12.0967V9.8704H8.94111Z" fill="#EBEBEB"/>
<path d="M17.61 7.6528L17.8511 5.4341H12.0667L12.0967 7.6528H17.61Z" fill="white"/>
</svg>
