<svg width="10" height="16" viewBox="0 0 10 16" fill="none" xmlns="http://www.w3.org/2000/svg">
<g clip-path="url(#clip0_36_12)">
<path fill-rule="evenodd" clip-rule="evenodd" d="M7.39015 5.04792C6.98813 4.14894 6.40096 3.3449 5.667 2.68834C5.5694 2.59932 5.45513 2.53051 5.33079 2.4859C5.20645 2.44129 5.0745 2.42176 4.94256 2.42844C4.81063 2.43511 4.68133 2.46786 4.56212 2.52479C4.44292 2.58172 4.33617 2.66171 4.24806 2.76013C4.15994 2.85855 4.0922 2.97345 4.04874 3.0982C4.00529 3.22295 3.98698 3.35508 3.99488 3.48694C4.00278 3.61881 4.03672 3.7478 4.09476 3.86648C4.15279 3.98515 4.23377 4.09114 4.333 4.17834C5.358 5.09534 6 6.42534 6 7.90534C5.99999 8.60889 5.8515 9.30451 5.56425 9.94675C5.27699 10.589 4.85743 11.1634 4.333 11.6323C4.23377 11.7195 4.15279 11.8255 4.09476 11.9442C4.03672 12.0629 4.00278 12.1919 3.99488 12.3237C3.98698 12.4556 4.00529 12.5877 4.04874 12.7125C4.0922 12.8372 4.15994 12.9521 4.24806 13.0506C4.33617 13.149 4.44292 13.229 4.56212 13.2859C4.68133 13.3428 4.81063 13.3756 4.94256 13.3823C5.0745 13.3889 5.20645 13.3694 5.33079 13.3248C5.45513 13.2802 5.5694 13.2114 5.667 13.1223C6.40096 12.4658 6.98813 11.6617 7.39015 10.7628C7.79216 9.8638 7.99997 8.89011 8 7.90534C7.99997 6.92057 7.79216 5.94689 7.39015 5.04792ZM4.65135 6.27217C4.42165 5.75868 4.08624 5.29941 3.667 4.92434C3.5694 4.83532 3.45513 4.76651 3.33079 4.7219C3.20645 4.67729 3.0745 4.65776 2.94256 4.66444C2.81063 4.67111 2.68133 4.70386 2.56212 4.76079C2.44292 4.81772 2.33617 4.89771 2.24806 4.99613C2.15994 5.09455 2.0922 5.20945 2.04874 5.3342C2.00529 5.45895 1.98698 5.59108 1.99488 5.72294C2.00278 5.85481 2.03672 5.9838 2.09476 6.10248C2.15279 6.22115 2.23377 6.32714 2.333 6.41434L2.452 6.52934C2.80403 6.90098 3.00016 7.39345 3 7.90534C3 8.49734 2.743 9.02834 2.333 9.39634L2.245 9.48634C2.07955 9.67858 1.99334 9.92651 2.00381 10.1799C2.01427 10.4333 2.12064 10.6733 2.30138 10.8513C2.48212 11.0292 2.72372 11.1318 2.97726 11.1383C3.23081 11.1448 3.47736 11.0548 3.667 10.8863C4.08649 10.5111 4.42205 10.0515 4.65175 9.53761C4.88146 9.02375 5.00012 8.4672 5 7.90434C4.99984 7.34182 4.88104 6.78566 4.65135 6.27217Z" fill="white"/>
</g>
<defs>
<clipPath id="clip0_36_12">
<rect width="10" height="16" fill="white"/>
</clipPath>
</defs>
</svg>
