<svg width="2082" height="1224" viewBox="0 0 2082 1224" fill="none" xmlns="http://www.w3.org/2000/svg">
<g clip-path="url(#clip0_375_571)">
<rect width="2082" height="1224" fill="#474747"/>
<rect width="1512" height="2364" transform="translate(285 42)" fill="url(#paint0_linear_375_571)"/>
<rect x="1190.5" y="436.5" width="52" height="52" rx="26" fill="white" stroke="black" stroke-width="3"/>
<rect x="285" y="42" width="1512" height="90" fill="#D9D9D9"/>
<rect x="418" y="308" width="707" height="580" rx="50" fill="#D9D9D9"/>
<rect x="418" y="1149" width="384" height="382" rx="23" fill="#D9D9D9"/>
<rect x="1286" y="1149" width="378" height="382" rx="23" fill="#D9D9D9"/>
<rect x="854" y="1149" width="378" height="382" rx="23" fill="#D9D9D9"/>
<rect x="1194" y="630" width="470" height="57" rx="28.5" fill="#D9D9D9"/>
<rect x="285" y="42" width="1512" height="90" fill="black"/>
<rect x="418" y="204" width="206" height="49" rx="24.5" fill="black"/>
<path d="M450.873 221.6L445.333 235H440.993L435.453 221.6H440.373L443.173 228.72L445.953 221.6H450.873ZM455.361 224.54C458.501 224.54 461.141 226.7 461.141 229.92C461.141 233.14 458.501 235.3 455.361 235.3C452.221 235.3 449.581 233.14 449.581 229.92C449.581 226.7 452.221 224.54 455.361 224.54ZM455.361 231.76C456.341 231.76 457.021 230.9 457.021 229.92C457.021 228.94 456.341 228.08 455.361 228.08C454.381 228.08 453.701 228.94 453.701 229.92C453.701 230.9 454.381 231.76 455.361 231.76ZM466.409 219.6V231.06C466.409 231.46 466.649 231.72 467.029 231.72C467.249 231.72 467.509 231.64 468.009 231.48L468.609 234.5C467.969 234.86 467.289 235.3 465.869 235.3C463.609 235.3 462.109 233.76 462.109 231.44V219.6H466.409ZM480.161 224.84L476.001 235H471.781L467.621 224.84H472.081L473.881 229.78L475.701 224.84H480.161ZM490.992 230.94H484.132C484.352 231.66 484.832 232.12 485.632 232.12C486.292 232.12 486.872 231.8 487.072 231.3L490.892 232.04C490.072 234.24 488.132 235.3 485.632 235.3C482.532 235.3 479.952 233.14 479.952 229.92C479.952 226.7 482.532 224.54 485.612 224.54C488.792 224.54 490.992 226.5 490.992 230.32V230.94ZM485.612 227.76C484.892 227.76 484.392 228.16 484.152 228.78H486.912C486.712 228.12 486.192 227.76 485.612 227.76ZM499.533 224.72C499.853 224.72 500.013 224.74 500.273 224.78L500.133 229.3H499.533C497.693 229.3 496.293 229.78 496.293 232.02V235H491.993V224.84H496.293V226.94C496.853 225.66 497.813 224.72 499.533 224.72ZM510.415 224.54C513.595 224.54 515.435 226.12 515.435 228.94V235H511.255V234.36C510.575 234.92 509.615 235.3 508.355 235.3C506.175 235.3 504.735 233.98 504.735 231.98C504.735 229.92 506.355 228.68 509.355 228.68H511.255V228.38C511.255 227.88 510.895 227.54 510.415 227.54C509.915 227.54 509.615 227.78 509.515 228.38L505.475 227.54C506.035 225.58 507.755 224.54 510.415 224.54ZM510.175 232.32C510.695 232.32 511.255 232.02 511.255 231.22V230.8H510.475C509.795 230.8 509.375 231.12 509.375 231.6C509.375 232.06 509.735 232.32 510.175 232.32ZM525.198 219.6V231.06C525.198 231.46 525.438 231.72 525.818 231.72C526.038 231.72 526.298 231.64 526.798 231.48L527.398 234.5C526.758 234.86 526.078 235.3 524.658 235.3C522.398 235.3 520.898 233.76 520.898 231.44V219.6H525.198ZM533.482 224.54C536.662 224.54 538.502 226.12 538.502 228.94V235H534.322V234.36C533.642 234.92 532.682 235.3 531.422 235.3C529.242 235.3 527.802 233.98 527.802 231.98C527.802 229.92 529.422 228.68 532.422 228.68H534.322V228.38C534.322 227.88 533.962 227.54 533.482 227.54C532.982 227.54 532.682 227.78 532.582 228.38L528.542 227.54C529.102 225.58 530.822 224.54 533.482 224.54ZM533.242 232.32C533.762 232.32 534.322 232.02 534.322 231.22V230.8H533.542C532.862 230.8 532.442 231.12 532.442 231.6C532.442 232.06 532.802 232.32 533.242 232.32ZM551.085 231.42L551.805 234.56C551.545 234.7 550.485 235.3 548.785 235.3C546.005 235.3 544.625 233.68 544.625 231.24V228.14H543.405V224.84H544.625V221.6H548.925V224.84H551.305V228.14H548.925V230.7C548.925 231.42 549.285 231.66 550.005 231.66C550.405 231.66 550.845 231.56 551.085 231.42ZM554.938 219.62C556.318 219.62 557.298 220.68 557.298 221.9C557.298 223.2 556.318 224.18 554.938 224.18C553.558 224.18 552.598 223.2 552.598 221.9C552.598 220.68 553.558 219.62 554.938 219.62ZM557.098 235H552.798V224.84H557.098V235ZM569.332 230.94H562.472C562.692 231.66 563.172 232.12 563.972 232.12C564.632 232.12 565.212 231.8 565.412 231.3L569.232 232.04C568.412 234.24 566.472 235.3 563.972 235.3C560.872 235.3 558.292 233.14 558.292 229.92C558.292 226.7 560.872 224.54 563.952 224.54C567.132 224.54 569.332 226.5 569.332 230.32V230.94ZM563.952 227.76C563.232 227.76 562.732 228.16 562.492 228.78H565.252C565.052 228.12 564.532 227.76 563.952 227.76ZM577.613 224.54C579.833 224.54 581.313 226.06 581.313 228.66V235H577.013V229.58C577.013 228.84 576.553 228.34 575.893 228.34C575.133 228.34 574.633 228.94 574.633 229.86V235H570.333V224.84H574.633V225.94C575.413 225.04 576.473 224.54 577.613 224.54ZM594.334 219.6V235H590.034V234.16C589.354 234.88 588.434 235.3 587.254 235.3C584.354 235.3 582.374 233.14 582.374 229.92C582.374 226.7 584.354 224.54 587.254 224.54C588.434 224.54 589.354 224.96 590.034 225.68V219.6H594.334ZM588.354 231.76C589.374 231.76 590.034 230.9 590.034 229.92C590.034 228.94 589.374 228.08 588.354 228.08C587.314 228.08 586.694 228.94 586.694 229.92C586.694 230.9 587.314 231.76 588.354 231.76ZM600.923 224.54C604.103 224.54 605.943 226.12 605.943 228.94V235H601.763V234.36C601.083 234.92 600.123 235.3 598.863 235.3C596.683 235.3 595.243 233.98 595.243 231.98C595.243 229.92 596.863 228.68 599.863 228.68H601.763V228.38C601.763 227.88 601.403 227.54 600.923 227.54C600.423 227.54 600.123 227.78 600.023 228.38L595.983 227.54C596.543 225.58 598.263 224.54 600.923 224.54ZM600.683 232.32C601.203 232.32 601.763 232.02 601.763 231.22V230.8H600.983C600.303 230.8 599.883 231.12 599.883 231.6C599.883 232.06 600.243 232.32 600.683 232.32Z" fill="white"/>
<path d="M1600.33 458.248C1598.85 458.248 1597.67 460.803 1597.67 463.989C1597.67 465.512 1597.95 466.972 1598.45 468.049C1598.95 469.125 1599.63 469.73 1600.33 469.73C1601.04 469.73 1601.72 469.125 1602.22 468.049C1602.72 466.972 1603 465.512 1603 463.989C1603 462.466 1602.72 461.006 1602.22 459.929C1601.72 458.853 1601.04 458.248 1600.33 458.248ZM1579 412.317V418.058H1581.67L1586.47 439.847L1584.65 446.88C1584.45 447.684 1584.33 448.631 1584.33 449.636C1584.33 451.158 1584.61 452.619 1585.11 453.695C1585.61 454.772 1586.29 455.377 1587 455.377H1603V449.636H1587.56C1587.47 449.636 1587.39 449.56 1587.32 449.425C1587.26 449.291 1587.23 449.108 1587.23 448.918C1587.23 448.774 1587.24 448.66 1587.27 448.574L1588.47 443.894H1598.4C1599.4 443.894 1600.28 442.689 1600.73 440.938L1605.51 422.364C1605.6 421.905 1605.67 421.417 1605.67 420.929C1605.67 420.168 1605.53 419.437 1605.28 418.899C1605.03 418.361 1604.69 418.058 1604.33 418.058H1584.61L1583.36 412.317M1587 458.248C1585.52 458.248 1584.33 460.803 1584.33 463.989C1584.33 465.512 1584.61 466.972 1585.11 468.049C1585.61 469.125 1586.29 469.73 1587 469.73C1587.71 469.73 1588.39 469.125 1588.89 468.049C1589.39 466.972 1589.67 465.512 1589.67 463.989C1589.67 462.466 1589.39 461.006 1588.89 459.929C1588.39 458.853 1587.71 458.248 1587 458.248Z" fill="white"/>
<path d="M1600.33 458.248C1598.85 458.248 1597.67 460.803 1597.67 463.989C1597.67 465.512 1597.95 466.972 1598.45 468.049C1598.95 469.125 1599.63 469.73 1600.33 469.73C1601.04 469.73 1601.72 469.125 1602.22 468.049C1602.72 466.972 1603 465.512 1603 463.989C1603 462.466 1602.72 461.006 1602.22 459.929C1601.72 458.853 1601.04 458.248 1600.33 458.248ZM1579 412.317V418.058H1581.67L1586.47 439.847L1584.65 446.88C1584.45 447.684 1584.33 448.631 1584.33 449.636C1584.33 451.158 1584.61 452.619 1585.11 453.695C1585.61 454.772 1586.29 455.377 1587 455.377H1603V449.636H1587.56C1587.47 449.636 1587.39 449.56 1587.32 449.425C1587.26 449.291 1587.23 449.108 1587.23 448.918C1587.23 448.774 1587.24 448.66 1587.27 448.574L1588.47 443.894H1598.4C1599.4 443.894 1600.28 442.689 1600.73 440.938L1605.51 422.364C1605.6 421.905 1605.67 421.417 1605.67 420.929C1605.67 420.168 1605.53 419.437 1605.28 418.899C1605.03 418.361 1604.69 418.058 1604.33 418.058H1584.61L1583.36 412.317M1587 458.248C1585.52 458.248 1584.33 460.803 1584.33 463.989C1584.33 465.512 1584.61 466.972 1585.11 468.049C1585.61 469.125 1586.29 469.73 1587 469.73C1587.71 469.73 1588.39 469.125 1588.89 468.049C1589.39 466.972 1589.67 465.512 1589.67 463.989C1589.67 462.466 1589.39 461.006 1588.89 459.929C1588.39 458.853 1587.71 458.248 1587 458.248Z" fill="white"/>
<g clip-path="url(#clip1_375_571)" filter="url(#filter0_d_375_571)">
<rect x="418.5" y="914.5" width="183" height="134" rx="24.5" fill="white" stroke="black"/>
<rect x="618.5" y="914.5" width="183" height="134" rx="24.5" fill="white" stroke="black"/>
<rect x="818.5" y="914.5" width="183" height="134" rx="24.5" fill="white" stroke="black"/>
<rect x="1018.5" y="914.5" width="183" height="134" rx="24.5" fill="white" stroke="black"/>
</g>
<rect x="1097.5" y="959.5" width="44" height="44" rx="22" fill="white" stroke="black"/>
<path d="M1205.31 322.88H1216.56C1216.65 323.72 1216.71 324.32 1216.71 324.95C1216.71 331.25 1212.21 335.45 1205.85 335.45C1199.61 335.45 1194.75 330.83 1194.75 324.95C1194.75 319.07 1199.61 314.45 1205.85 314.45C1210.8 314.45 1214.64 316.76 1215.96 320.45L1209 322.01C1208.37 320.78 1207.32 320.33 1205.85 320.33C1203.21 320.33 1201.41 322.34 1201.41 324.95C1201.41 327.56 1203.21 329.57 1205.85 329.57C1207.44 329.57 1208.61 329.03 1209.36 328.1H1205.31V322.88ZM1226.59 319.31C1231.3 319.31 1235.26 322.55 1235.26 327.38C1235.26 332.21 1231.3 335.45 1226.59 335.45C1221.88 335.45 1217.92 332.21 1217.92 327.38C1217.92 322.55 1221.88 319.31 1226.59 319.31ZM1226.59 330.14C1228.06 330.14 1229.08 328.85 1229.08 327.38C1229.08 325.91 1228.06 324.62 1226.59 324.62C1225.12 324.62 1224.1 325.91 1224.1 327.38C1224.1 328.85 1225.12 330.14 1226.59 330.14ZM1248.08 319.58C1248.56 319.58 1248.8 319.61 1249.19 319.67L1248.98 326.45H1248.08C1245.32 326.45 1243.22 327.17 1243.22 330.53V335H1236.77V319.76H1243.22V322.91C1244.06 320.99 1245.5 319.58 1248.08 319.58ZM1261.64 319.58C1262.12 319.58 1262.36 319.61 1262.75 319.67L1262.54 326.45H1261.64C1258.88 326.45 1256.78 327.17 1256.78 330.53V335H1250.33V319.76H1256.78V322.91C1257.62 320.99 1259.06 319.58 1261.64 319.58ZM1271.97 319.31C1276.68 319.31 1280.64 322.55 1280.64 327.38C1280.64 332.21 1276.68 335.45 1271.97 335.45C1267.26 335.45 1263.3 332.21 1263.3 327.38C1263.3 322.55 1267.26 319.31 1271.97 319.31ZM1271.97 330.14C1273.44 330.14 1274.46 328.85 1274.46 327.38C1274.46 325.91 1273.44 324.62 1271.97 324.62C1270.5 324.62 1269.48 325.91 1269.48 327.38C1269.48 328.85 1270.5 330.14 1271.97 330.14Z" fill="black"/>
<path d="M1214.8 366.08L1223.68 368.16C1222.6 374.52 1217.36 378.6 1209.6 378.6C1201.4 378.6 1195 372.44 1195 364.6C1195 356.76 1201.4 350.6 1209.6 350.6C1216.48 350.6 1222.48 354.6 1223.64 360.8L1214.76 362.8C1214.16 360 1212.4 358.44 1209.6 358.44C1206.4 358.44 1203.88 361.12 1203.88 364.6C1203.88 368.08 1206.4 370.76 1209.6 370.76C1212.36 370.76 1214.12 369.08 1214.8 366.08ZM1236.42 357.08C1242.78 357.08 1246.46 360.24 1246.46 365.88V378H1238.1V376.72C1236.74 377.84 1234.82 378.6 1232.3 378.6C1227.94 378.6 1225.06 375.96 1225.06 371.96C1225.06 367.84 1228.3 365.36 1234.3 365.36H1238.1V364.76C1238.1 363.76 1237.38 363.08 1236.42 363.08C1235.42 363.08 1234.82 363.56 1234.62 364.76L1226.54 363.08C1227.66 359.16 1231.1 357.08 1236.42 357.08ZM1235.94 372.64C1236.98 372.64 1238.1 372.04 1238.1 370.44V369.6H1236.54C1235.18 369.6 1234.34 370.24 1234.34 371.2C1234.34 372.12 1235.06 372.64 1235.94 372.64ZM1263.23 357.08C1269.03 357.08 1272.99 361.4 1272.99 367.84C1272.99 374.28 1269.03 378.6 1263.23 378.6C1260.87 378.6 1259.03 377.76 1257.67 376.32V387.6H1249.07V357.68H1257.67V359.36C1259.03 357.92 1260.87 357.08 1263.23 357.08ZM1261.03 371.52C1263.11 371.52 1264.35 369.8 1264.35 367.84C1264.35 365.88 1263.11 364.16 1261.03 364.16C1258.99 364.16 1257.67 365.88 1257.67 367.84C1257.67 369.8 1258.99 371.52 1261.03 371.52ZM1297.09 351.2V378H1288.41V361.32L1282.41 364.36V356.2L1291.33 351.2H1297.09ZM1332 347.2V378H1323.4V376.32C1322.04 377.76 1320.2 378.6 1317.84 378.6C1312.04 378.6 1308.08 374.28 1308.08 367.84C1308.08 361.4 1312.04 357.08 1317.84 357.08C1320.2 357.08 1322.04 357.92 1323.4 359.36V347.2H1332ZM1320.04 371.52C1322.08 371.52 1323.4 369.8 1323.4 367.84C1323.4 365.88 1322.08 364.16 1320.04 364.16C1317.96 364.16 1316.72 365.88 1316.72 367.84C1316.72 369.8 1317.96 371.52 1320.04 371.52ZM1356.09 369.88H1342.37C1342.81 371.32 1343.77 372.24 1345.37 372.24C1346.69 372.24 1347.85 371.6 1348.25 370.6L1355.89 372.08C1354.25 376.48 1350.37 378.6 1345.37 378.6C1339.17 378.6 1334.01 374.28 1334.01 367.84C1334.01 361.4 1339.17 357.08 1345.33 357.08C1351.69 357.08 1356.09 361 1356.09 368.64V369.88ZM1345.33 363.52C1343.89 363.52 1342.89 364.32 1342.41 365.56H1347.93C1347.53 364.24 1346.49 363.52 1345.33 363.52ZM1384.85 364.16V364.32C1387.93 364.32 1391.01 365.76 1391.01 370.36C1391.01 374.96 1387.29 378 1381.73 378H1366.49V351.2H1381.73C1386.81 351.2 1390.21 354 1390.21 358.24C1390.21 362.52 1387.05 364.16 1384.85 364.16ZM1375.33 357.84V362H1379.05C1380.57 362 1381.57 361.16 1381.57 359.92C1381.57 358.64 1380.57 357.84 1379.05 357.84H1375.33ZM1375.33 371.36H1379.45C1380.97 371.36 1381.97 370.44 1381.97 369C1381.97 367.76 1380.97 366.96 1379.45 366.96H1375.33V371.36ZM1403.57 357.08C1409.93 357.08 1413.61 360.24 1413.61 365.88V378H1405.25V376.72C1403.89 377.84 1401.97 378.6 1399.45 378.6C1395.09 378.6 1392.21 375.96 1392.21 371.96C1392.21 367.84 1395.45 365.36 1401.45 365.36H1405.25V364.76C1405.25 363.76 1404.53 363.08 1403.57 363.08C1402.57 363.08 1401.97 363.56 1401.77 364.76L1393.69 363.08C1394.81 359.16 1398.25 357.08 1403.57 357.08ZM1403.09 372.64C1404.13 372.64 1405.25 372.04 1405.25 370.44V369.6H1403.69C1402.33 369.6 1401.49 370.24 1401.49 371.2C1401.49 372.12 1402.21 372.64 1403.09 372.64ZM1431.3 357.44C1431.94 357.44 1432.26 357.48 1432.78 357.56L1432.5 366.6H1431.3C1427.62 366.6 1424.82 367.56 1424.82 372.04V378H1416.22V357.68H1424.82V361.88C1425.94 359.32 1427.86 357.44 1431.3 357.44ZM1448.86 370.84L1450.3 377.12C1449.78 377.4 1447.66 378.6 1444.26 378.6C1438.7 378.6 1435.94 375.36 1435.94 370.48V364.28H1433.5V357.68H1435.94V351.2H1444.54V357.68H1449.3V364.28H1444.54V369.4C1444.54 370.84 1445.26 371.32 1446.7 371.32C1447.5 371.32 1448.38 371.12 1448.86 370.84ZM1462.25 357.08C1468.53 357.08 1473.81 361.4 1473.81 367.84C1473.81 374.28 1468.53 378.6 1462.25 378.6C1455.97 378.6 1450.69 374.28 1450.69 367.84C1450.69 361.4 1455.97 357.08 1462.25 357.08ZM1462.25 371.52C1464.21 371.52 1465.57 369.8 1465.57 367.84C1465.57 365.88 1464.21 364.16 1462.25 364.16C1460.29 364.16 1458.93 365.88 1458.93 367.84C1458.93 369.8 1460.29 371.52 1462.25 371.52ZM1484.35 347.2V370.12C1484.35 370.92 1484.83 371.44 1485.59 371.44C1486.03 371.44 1486.55 371.28 1487.55 370.96L1488.75 377C1487.47 377.72 1486.11 378.6 1483.27 378.6C1478.75 378.6 1475.75 375.52 1475.75 370.88V347.2H1484.35ZM1500.34 357.08C1506.62 357.08 1511.9 361.4 1511.9 367.84C1511.9 374.28 1506.62 378.6 1500.34 378.6C1494.06 378.6 1488.78 374.28 1488.78 367.84C1488.78 361.4 1494.06 357.08 1500.34 357.08ZM1500.34 371.52C1502.3 371.52 1503.66 369.8 1503.66 367.84C1503.66 365.88 1502.3 364.16 1500.34 364.16C1498.38 364.16 1497.02 365.88 1497.02 367.84C1497.02 369.8 1498.38 371.52 1500.34 371.52ZM1541.76 357.08C1546.24 357.08 1549.24 360.36 1549.24 365.32V378H1540.64V367.16C1540.64 365.68 1539.68 364.68 1538.4 364.68C1536.92 364.68 1535.88 366 1535.88 367.72V378H1527.28V367.16C1527.28 365.68 1526.32 364.68 1524.96 364.68C1523.52 364.68 1522.52 366 1522.52 367.72V378H1513.92V357.68H1522.52V359.92C1523.8 358.16 1525.72 357.08 1528.4 357.08C1531.36 357.08 1533.68 358.4 1534.92 360.72C1536.4 358.48 1538.72 357.08 1541.76 357.08ZM1573.44 369.88H1559.72C1560.16 371.32 1561.12 372.24 1562.72 372.24C1564.04 372.24 1565.2 371.6 1565.6 370.6L1573.24 372.08C1571.6 376.48 1567.72 378.6 1562.72 378.6C1556.52 378.6 1551.36 374.28 1551.36 367.84C1551.36 361.4 1556.52 357.08 1562.68 357.08C1569.04 357.08 1573.44 361 1573.44 368.64V369.88ZM1562.68 363.52C1561.24 363.52 1560.24 364.32 1559.76 365.56H1565.28C1564.88 364.24 1563.84 363.52 1562.68 363.52ZM1586.2 357.08C1592.48 357.08 1597.76 361.4 1597.76 367.84C1597.76 374.28 1592.48 378.6 1586.2 378.6C1579.92 378.6 1574.64 374.28 1574.64 367.84C1574.64 361.4 1579.92 357.08 1586.2 357.08ZM1586.2 371.52C1588.16 371.52 1589.52 369.8 1589.52 367.84C1589.52 365.88 1588.16 364.16 1586.2 364.16C1584.24 364.16 1582.88 365.88 1582.88 367.84C1582.88 369.8 1584.24 371.52 1586.2 371.52Z" fill="black"/>
<path d="M1328.01 669H1320.93L1320.12 666.57H1312.71L1311.87 669H1304.79L1312.59 648.9H1320.21L1328.01 669ZM1318.29 661.17L1316.43 655.71L1314.57 661.17H1318.29ZM1336.12 651.18C1335.49 651.18 1335.31 651.33 1335.01 651.99H1331.56C1331.56 648.48 1333.18 646.14 1335.49 646.14C1337.29 646.14 1337.98 647.19 1339.06 647.19C1339.69 647.19 1339.87 647.01 1340.17 646.29H1343.62C1343.62 649.8 1342 652.14 1339.66 652.14C1337.89 652.14 1337.26 651.18 1336.12 651.18ZM1339.99 653.31C1343.32 653.31 1345.54 655.59 1345.54 659.49V669H1339.09V660.87C1339.09 659.76 1338.4 659.01 1337.41 659.01C1336.27 659.01 1335.52 659.91 1335.52 661.29V669H1329.07V653.76H1335.52V655.41C1336.69 654.06 1338.28 653.31 1339.99 653.31ZM1355.5 653.31C1360.27 653.31 1363.03 655.68 1363.03 659.91V669H1356.76V668.04C1355.74 668.88 1354.3 669.45 1352.41 669.45C1349.14 669.45 1346.98 667.47 1346.98 664.47C1346.98 661.38 1349.41 659.52 1353.91 659.52H1356.76V659.07C1356.76 658.32 1356.22 657.81 1355.5 657.81C1354.75 657.81 1354.3 658.17 1354.15 659.07L1348.09 657.81C1348.93 654.87 1351.51 653.31 1355.5 653.31ZM1355.14 664.98C1355.92 664.98 1356.76 664.53 1356.76 663.33V662.7H1355.59C1354.57 662.7 1353.94 663.18 1353.94 663.9C1353.94 664.59 1354.48 664.98 1355.14 664.98ZM1382.33 645.9V669H1375.88V667.74C1374.86 668.82 1373.48 669.45 1371.71 669.45C1367.36 669.45 1364.39 666.21 1364.39 661.38C1364.39 656.55 1367.36 653.31 1371.71 653.31C1373.48 653.31 1374.86 653.94 1375.88 655.02V645.9H1382.33ZM1373.36 664.14C1374.89 664.14 1375.88 662.85 1375.88 661.38C1375.88 659.91 1374.89 658.62 1373.36 658.62C1371.8 658.62 1370.87 659.91 1370.87 661.38C1370.87 662.85 1371.8 664.14 1373.36 664.14ZM1387.95 645.93C1390.02 645.93 1391.49 647.52 1391.49 649.35C1391.49 651.3 1390.02 652.77 1387.95 652.77C1385.88 652.77 1384.44 651.3 1384.44 649.35C1384.44 647.52 1385.88 645.93 1387.95 645.93ZM1391.19 669H1384.74V653.76H1391.19V669ZM1404.89 653.58C1405.37 653.58 1405.61 653.61 1406 653.67L1405.79 660.45H1404.89C1402.13 660.45 1400.03 661.17 1400.03 664.53V669H1393.58V653.76H1400.03V656.91C1400.87 654.99 1402.31 653.58 1404.89 653.58ZM1421.21 653.31C1425.98 653.31 1428.74 655.68 1428.74 659.91V669H1422.47V668.04C1421.45 668.88 1420.01 669.45 1418.12 669.45C1414.85 669.45 1412.69 667.47 1412.69 664.47C1412.69 661.38 1415.12 659.52 1419.62 659.52H1422.47V659.07C1422.47 658.32 1421.93 657.81 1421.21 657.81C1420.46 657.81 1420.01 658.17 1419.86 659.07L1413.8 657.81C1414.64 654.87 1417.22 653.31 1421.21 653.31ZM1420.85 664.98C1421.63 664.98 1422.47 664.53 1422.47 663.33V662.7H1421.3C1420.28 662.7 1419.65 663.18 1419.65 663.9C1419.65 664.59 1420.19 664.98 1420.85 664.98ZM1436.94 645.9V663.09C1436.94 663.69 1437.3 664.08 1437.87 664.08C1438.2 664.08 1438.59 663.96 1439.34 663.72L1440.24 668.25C1439.28 668.79 1438.26 669.45 1436.13 669.45C1432.74 669.45 1430.49 667.14 1430.49 663.66V645.9H1436.94ZM1457.8 662.01L1463.68 663.03C1463.14 666.93 1459.72 669.45 1455.61 669.45C1450.9 669.45 1447 666.21 1447 661.38C1447 656.55 1450.9 653.31 1455.61 653.31C1459.69 653.31 1463.11 655.77 1463.65 659.64L1457.8 660.72C1457.59 659.4 1456.72 658.62 1455.61 658.62C1454.14 658.62 1453.18 659.91 1453.18 661.38C1453.18 662.85 1454.14 664.14 1455.61 664.14C1456.72 664.14 1457.59 663.36 1457.8 662.01ZM1472.66 653.31C1477.43 653.31 1480.19 655.68 1480.19 659.91V669H1473.92V668.04C1472.9 668.88 1471.46 669.45 1469.57 669.45C1466.3 669.45 1464.14 667.47 1464.14 664.47C1464.14 661.38 1466.57 659.52 1471.07 659.52H1473.92V659.07C1473.92 658.32 1473.38 657.81 1472.66 657.81C1471.91 657.81 1471.46 658.17 1471.31 659.07L1465.25 657.81C1466.09 654.87 1468.67 653.31 1472.66 653.31ZM1472.3 664.98C1473.08 664.98 1473.92 664.53 1473.92 663.33V662.7H1472.75C1471.73 662.7 1471.1 663.18 1471.1 663.9C1471.1 664.59 1471.64 664.98 1472.3 664.98ZM1493.45 653.58C1493.93 653.58 1494.17 653.61 1494.56 653.67L1494.35 660.45H1493.45C1490.69 660.45 1488.59 661.17 1488.59 664.53V669H1482.14V653.76H1488.59V656.91C1489.43 654.99 1490.87 653.58 1493.45 653.58ZM1507.02 653.58C1507.5 653.58 1507.74 653.61 1508.13 653.67L1507.92 660.45H1507.02C1504.26 660.45 1502.16 661.17 1502.16 664.53V669H1495.71V653.76H1502.16V656.91C1503 654.99 1504.44 653.58 1507.02 653.58ZM1512.78 645.93C1514.85 645.93 1516.32 647.52 1516.32 649.35C1516.32 651.3 1514.85 652.77 1512.78 652.77C1510.71 652.77 1509.27 651.3 1509.27 649.35C1509.27 647.52 1510.71 645.93 1512.78 645.93ZM1516.02 669H1509.57V653.76H1516.02V669ZM1529.03 663.63L1530.11 668.34C1529.72 668.55 1528.13 669.45 1525.58 669.45C1521.41 669.45 1519.34 667.02 1519.34 663.36V658.71H1517.51V653.76H1519.34V648.9H1525.79V653.76H1529.36V658.71H1525.79V662.55C1525.79 663.63 1526.33 663.99 1527.41 663.99C1528.01 663.99 1528.67 663.84 1529.03 663.63ZM1539.08 653.31C1543.79 653.31 1547.75 656.55 1547.75 661.38C1547.75 666.21 1543.79 669.45 1539.08 669.45C1534.37 669.45 1530.41 666.21 1530.41 661.38C1530.41 656.55 1534.37 653.31 1539.08 653.31ZM1539.08 664.14C1540.55 664.14 1541.57 662.85 1541.57 661.38C1541.57 659.91 1540.55 658.62 1539.08 658.62C1537.61 658.62 1536.59 659.91 1536.59 661.38C1536.59 662.85 1537.61 664.14 1539.08 664.14Z" fill="black"/>
<rect x="1199.5" y="538.5" width="185" height="52" rx="26" fill="white" stroke="black"/>
<path d="M1370 565.998H1364V571.998H1362V565.998H1356V563.998H1362V557.998H1364V563.998H1370V565.998Z" fill="black"/>
<path fill-rule="evenodd" clip-rule="evenodd" d="M1228 565.998H1222V566L1220 565.998H1214V563.998H1220H1222H1228V565.998Z" fill="black"/>
<path d="M1296.91 554.9V575H1290.4V562.49L1285.9 564.77V558.65L1292.59 554.9H1296.91Z" fill="black"/>
<rect x="1194.5" y="440.5" width="44" height="44" rx="22" fill="black" stroke="black"/>
<rect x="1259.5" y="440.5" width="44" height="44" rx="22" fill="white" stroke="black"/>
<path d="M1225.04 467.42V473H1209.41V452.9H1216.04V467.42H1225.04Z" fill="white"/>
<path d="M1294.38 452.9V473H1287.9V463.97L1283.58 473H1280.4L1276.08 463.97V473H1269.6V452.9H1276.98L1281.99 463.34L1287 452.9H1294.38Z" fill="black"/>
<path d="M1117 975L1123.75 981.75L1117 988.5" stroke="black" stroke-width="2" stroke-linecap="round" stroke-linejoin="round"/>
<rect x="1558" y="200" width="106" height="53" rx="26.5" fill="#E2E2E2"/>
<path d="M1600.33 235.333C1598.85 235.333 1597.67 236.52 1597.67 238C1597.67 238.707 1597.95 239.386 1598.45 239.886C1598.95 240.386 1599.63 240.667 1600.33 240.667C1601.04 240.667 1601.72 240.386 1602.22 239.886C1602.72 239.386 1603 238.707 1603 238C1603 237.293 1602.72 236.614 1602.22 236.114C1601.72 235.614 1601.04 235.333 1600.33 235.333ZM1579 214V216.667H1581.67L1586.47 226.787L1584.65 230.053C1584.45 230.427 1584.33 230.867 1584.33 231.333C1584.33 232.041 1584.61 232.719 1585.11 233.219C1585.61 233.719 1586.29 234 1587 234H1603V231.333H1587.56C1587.47 231.333 1587.39 231.298 1587.32 231.236C1587.26 231.173 1587.23 231.088 1587.23 231C1587.23 230.933 1587.24 230.88 1587.27 230.84L1588.47 228.667H1598.4C1599.4 228.667 1600.28 228.107 1600.73 227.293L1605.51 218.667C1605.6 218.453 1605.67 218.227 1605.67 218C1605.67 217.646 1605.53 217.307 1605.28 217.057C1605.03 216.807 1604.69 216.667 1604.33 216.667H1584.61L1583.36 214M1587 235.333C1585.52 235.333 1584.33 236.52 1584.33 238C1584.33 238.707 1584.61 239.386 1585.11 239.886C1585.61 240.386 1586.29 240.667 1587 240.667C1587.71 240.667 1588.39 240.386 1588.89 239.886C1589.39 239.386 1589.67 238.707 1589.67 238C1589.67 237.293 1589.39 236.614 1588.89 236.114C1588.39 235.614 1587.71 235.333 1587 235.333Z" fill="black"/>
<path d="M1639.58 231.42V237H1623.11L1623.2 236.82V232.59L1630.49 226.44C1631.93 225.21 1632.83 224.37 1632.83 223.35C1632.83 222.42 1632.23 221.82 1631.33 221.82C1630.28 221.82 1629.44 222.51 1629.32 224.22L1622.99 223.11C1623.23 218.91 1626.47 216.45 1631.15 216.45C1635.83 216.45 1639.19 218.91 1639.19 223.41C1639.19 226.23 1637.54 227.7 1635.32 229.56L1633.07 231.42H1639.58Z" fill="black"/>
<rect x="1558" y="200" width="106" height="53" rx="26.5" fill="#E2E2E2"/>
<path d="M1600.33 235.333C1598.85 235.333 1597.67 236.52 1597.67 238C1597.67 238.707 1597.95 239.386 1598.45 239.886C1598.95 240.386 1599.63 240.667 1600.33 240.667C1601.04 240.667 1601.72 240.386 1602.22 239.886C1602.72 239.386 1603 238.707 1603 238C1603 237.293 1602.72 236.614 1602.22 236.114C1601.72 235.614 1601.04 235.333 1600.33 235.333ZM1579 214V216.667H1581.67L1586.47 226.787L1584.65 230.053C1584.45 230.427 1584.33 230.867 1584.33 231.333C1584.33 232.041 1584.61 232.719 1585.11 233.219C1585.61 233.719 1586.29 234 1587 234H1603V231.333H1587.56C1587.47 231.333 1587.39 231.298 1587.32 231.236C1587.26 231.173 1587.23 231.088 1587.23 231C1587.23 230.933 1587.24 230.88 1587.27 230.84L1588.47 228.667H1598.4C1599.4 228.667 1600.28 228.107 1600.73 227.293L1605.51 218.667C1605.6 218.453 1605.67 218.227 1605.67 218C1605.67 217.646 1605.53 217.307 1605.28 217.057C1605.03 216.807 1604.69 216.667 1604.33 216.667H1584.61L1583.36 214M1587 235.333C1585.52 235.333 1584.33 236.52 1584.33 238C1584.33 238.707 1584.61 239.386 1585.11 239.886C1585.61 240.386 1586.29 240.667 1587 240.667C1587.71 240.667 1588.39 240.386 1588.89 239.886C1589.39 239.386 1589.67 238.707 1589.67 238C1589.67 237.293 1589.39 236.614 1588.89 236.114C1588.39 235.614 1587.71 235.333 1587 235.333Z" fill="black"/>
<path d="M1631.51 216.45C1637.09 216.45 1640.81 220.65 1640.81 226.95C1640.81 233.25 1637.09 237.45 1631.51 237.45C1625.9 237.45 1622.18 233.25 1622.18 226.95C1622.18 220.65 1625.9 216.45 1631.51 216.45ZM1631.51 231.93C1633.1 231.93 1634.15 230.28 1634.15 226.95C1634.15 223.65 1633.1 222 1631.51 222C1629.89 222 1628.84 223.65 1628.84 226.95C1628.84 230.28 1629.89 231.93 1631.51 231.93Z" fill="black"/>
</g>
<defs>
<filter id="filter0_d_375_571" x="414" y="910" width="710" height="143" filterUnits="userSpaceOnUse" color-interpolation-filters="sRGB">
<feFlood flood-opacity="0" result="BackgroundImageFix"/>
<feColorMatrix in="SourceAlpha" type="matrix" values="0 0 0 0 0 0 0 0 0 0 0 0 0 0 0 0 0 0 127 0" result="hardAlpha"/>
<feOffset/>
<feGaussianBlur stdDeviation="2"/>
<feComposite in2="hardAlpha" operator="out"/>
<feColorMatrix type="matrix" values="0 0 0 0 1 0 0 0 0 1 0 0 0 0 1 0 0 0 1 0"/>
<feBlend mode="normal" in2="BackgroundImageFix" result="effect1_dropShadow_375_571"/>
<feBlend mode="normal" in="SourceGraphic" in2="effect1_dropShadow_375_571" result="shape"/>
</filter>
<linearGradient id="paint0_linear_375_571" x1="756" y1="0" x2="756" y2="2364" gradientUnits="userSpaceOnUse">
<stop offset="0.0323841" stop-color="white"/>
<stop offset="0.471154" stop-color="white"/>
<stop offset="1" stop-color="#999999"/>
</linearGradient>
<clipPath id="clip0_375_571">
<rect width="2082" height="1224" fill="white"/>
</clipPath>
<clipPath id="clip1_375_571">
<rect width="702" height="135" fill="white" transform="translate(418 914)"/>
</clipPath>
</defs>
</svg>
