<svg width="2082" height="1224" viewBox="0 0 2082 1224" fill="none" xmlns="http://www.w3.org/2000/svg">
<rect width="2082" height="1224" fill="#474747"/>
<g clip-path="url(#clip0_375_397)">
<rect width="1512" height="908" transform="translate(285 158)" fill="white"/>
<rect x="1558" y="320" width="106" height="53" rx="26.5" fill="black"/>
<rect x="285" y="158" width="1512" height="90" fill="#D9D9D9"/>
<rect x="418" y="320" width="390" height="49" rx="24.5" fill="black"/>
<rect x="425" y="327" width="103" height="36" rx="18" fill="white"/>
<path d="M459.353 342.32H455.273V352H450.853V342.32H446.773V338.6H459.353V342.32ZM464.641 341.54C467.781 341.54 470.421 343.7 470.421 346.92C470.421 350.14 467.781 352.3 464.641 352.3C461.501 352.3 458.861 350.14 458.861 346.92C458.861 343.7 461.501 341.54 464.641 341.54ZM464.641 348.76C465.621 348.76 466.301 347.9 466.301 346.92C466.301 345.94 465.621 345.08 464.641 345.08C463.661 345.08 462.981 345.94 462.981 346.92C462.981 347.9 463.661 348.76 464.641 348.76ZM482.989 336.6V352H478.689V351.16C478.009 351.88 477.089 352.3 475.909 352.3C473.009 352.3 471.029 350.14 471.029 346.92C471.029 343.7 473.009 341.54 475.909 341.54C477.089 341.54 478.009 341.96 478.689 342.68V336.6H482.989ZM477.009 348.76C478.029 348.76 478.689 347.9 478.689 346.92C478.689 345.94 478.029 345.08 477.009 345.08C475.969 345.08 475.349 345.94 475.349 346.92C475.349 347.9 475.969 348.76 477.009 348.76ZM489.777 341.54C492.917 341.54 495.557 343.7 495.557 346.92C495.557 350.14 492.917 352.3 489.777 352.3C486.637 352.3 483.997 350.14 483.997 346.92C483.997 343.7 486.637 341.54 489.777 341.54ZM489.777 348.76C490.757 348.76 491.437 347.9 491.437 346.92C491.437 345.94 490.757 345.08 489.777 345.08C488.797 345.08 488.117 345.94 488.117 346.92C488.117 347.9 488.797 348.76 489.777 348.76ZM496.165 349.4L500.205 348.6C500.385 349.12 500.925 349.4 501.425 349.4C501.985 349.4 502.225 349.2 502.225 349C502.225 348.68 501.945 348.62 501.405 348.56L499.385 348.24C497.425 347.94 496.285 347.02 496.285 345.16C496.285 342.8 498.485 341.54 501.045 341.54C503.845 341.54 505.545 342.5 506.085 344.28L502.325 345.02C502.245 344.74 501.845 344.22 501.105 344.22C500.625 344.22 500.385 344.42 500.385 344.62C500.385 344.78 500.505 344.94 500.905 345.02L503.185 345.44C505.365 345.84 506.325 347.08 506.325 348.84C506.325 351.1 504.125 352.3 501.405 352.3C498.725 352.3 496.685 351.42 496.165 349.4Z" fill="black"/>
<rect x="535" y="327" width="155" height="36" rx="18" fill="black"/>
<path d="M571.646 346.04L576.086 347.08C575.546 350.26 572.926 352.3 569.046 352.3C564.946 352.3 561.746 349.22 561.746 345.3C561.746 341.38 564.946 338.3 569.046 338.3C572.486 338.3 575.486 340.3 576.066 343.4L571.626 344.4C571.326 343 570.446 342.22 569.046 342.22C567.446 342.22 566.186 343.56 566.186 345.3C566.186 347.04 567.446 348.38 569.046 348.38C570.426 348.38 571.306 347.54 571.646 346.04ZM582.458 341.54C585.638 341.54 587.478 343.12 587.478 345.94V352H583.298V351.36C582.618 351.92 581.658 352.3 580.398 352.3C578.218 352.3 576.778 350.98 576.778 348.98C576.778 346.92 578.398 345.68 581.398 345.68H583.298V345.38C583.298 344.88 582.938 344.54 582.458 344.54C581.958 344.54 581.658 344.78 581.558 345.38L577.518 344.54C578.078 342.58 579.798 341.54 582.458 341.54ZM582.218 349.32C582.738 349.32 583.298 349.02 583.298 348.22V347.8H582.518C581.838 347.8 581.418 348.12 581.418 348.6C581.418 349.06 581.778 349.32 582.218 349.32ZM602.702 341.54C604.942 341.54 606.442 343.18 606.442 345.66V352H602.142V346.58C602.142 345.84 601.662 345.34 601.022 345.34C600.282 345.34 599.762 346 599.762 346.86V352H595.462V346.58C595.462 345.84 594.982 345.34 594.302 345.34C593.582 345.34 593.082 346 593.082 346.86V352H588.782V341.84H593.082V342.96C593.722 342.08 594.682 341.54 596.022 341.54C597.502 341.54 598.662 342.2 599.282 343.36C600.022 342.24 601.182 341.54 602.702 341.54ZM610.243 336.62C611.623 336.62 612.603 337.68 612.603 338.9C612.603 340.2 611.623 341.18 610.243 341.18C608.863 341.18 607.903 340.2 607.903 338.9C607.903 337.68 608.863 336.62 610.243 336.62ZM612.403 352H608.103V341.84H612.403V352ZM613.597 349.4L617.637 348.6C617.817 349.12 618.357 349.4 618.857 349.4C619.417 349.4 619.657 349.2 619.657 349C619.657 348.68 619.377 348.62 618.837 348.56L616.817 348.24C614.857 347.94 613.717 347.02 613.717 345.16C613.717 342.8 615.917 341.54 618.477 341.54C621.277 341.54 622.977 342.5 623.517 344.28L619.757 345.02C619.677 344.74 619.277 344.22 618.537 344.22C618.057 344.22 617.817 344.42 617.817 344.62C617.817 344.78 617.937 344.94 618.337 345.02L620.617 345.44C622.797 345.84 623.757 347.08 623.757 348.84C623.757 351.1 621.557 352.3 618.837 352.3C616.157 352.3 614.117 351.42 613.597 349.4ZM635.399 347.94H628.539C628.759 348.66 629.239 349.12 630.039 349.12C630.699 349.12 631.279 348.8 631.479 348.3L635.299 349.04C634.479 351.24 632.539 352.3 630.039 352.3C626.939 352.3 624.359 350.14 624.359 346.92C624.359 343.7 626.939 341.54 630.019 341.54C633.199 341.54 635.399 343.5 635.399 347.32V347.94ZM630.019 344.76C629.299 344.76 628.799 345.16 628.559 345.78H631.319C631.119 345.12 630.599 344.76 630.019 344.76ZM643.479 348.42L644.199 351.56C643.939 351.7 642.879 352.3 641.179 352.3C638.399 352.3 637.019 350.68 637.019 348.24V345.14H635.799V341.84H637.019V338.6H641.319V341.84H643.699V345.14H641.319V347.7C641.319 348.42 641.679 348.66 642.399 348.66C642.799 348.66 643.239 348.56 643.479 348.42ZM650.368 341.54C653.548 341.54 655.388 343.12 655.388 345.94V352H651.208V351.36C650.528 351.92 649.568 352.3 648.308 352.3C646.128 352.3 644.688 350.98 644.688 348.98C644.688 346.92 646.308 345.68 649.308 345.68H651.208V345.38C651.208 344.88 650.848 344.54 650.368 344.54C649.868 344.54 649.568 344.78 649.468 345.38L645.428 344.54C645.988 342.58 647.708 341.54 650.368 341.54ZM650.128 349.32C650.648 349.32 651.208 349.02 651.208 348.22V347.8H650.428C649.748 347.8 649.328 348.12 649.328 348.6C649.328 349.06 649.688 349.32 650.128 349.32ZM656.292 349.4L660.332 348.6C660.512 349.12 661.052 349.4 661.552 349.4C662.112 349.4 662.352 349.2 662.352 349C662.352 348.68 662.072 348.62 661.532 348.56L659.512 348.24C657.552 347.94 656.412 347.02 656.412 345.16C656.412 342.8 658.612 341.54 661.172 341.54C663.972 341.54 665.672 342.5 666.212 344.28L662.452 345.02C662.372 344.74 661.972 344.22 661.232 344.22C660.752 344.22 660.512 344.42 660.512 344.62C660.512 344.78 660.632 344.94 661.032 345.02L663.312 345.44C665.492 345.84 666.452 347.08 666.452 348.84C666.452 351.1 664.252 352.3 661.532 352.3C658.852 352.3 656.812 351.42 656.292 349.4Z" fill="white"/>
<rect x="697" y="327" width="105" height="36" rx="18" fill="black"/>
<path d="M723.126 343.92H730.626C730.686 344.48 730.726 344.88 730.726 345.3C730.726 349.5 727.726 352.3 723.486 352.3C719.326 352.3 716.086 349.22 716.086 345.3C716.086 341.38 719.326 338.3 723.486 338.3C726.786 338.3 729.346 339.84 730.226 342.3L725.586 343.34C725.166 342.52 724.466 342.22 723.486 342.22C721.726 342.22 720.526 343.56 720.526 345.3C720.526 347.04 721.726 348.38 723.486 348.38C724.546 348.38 725.326 348.02 725.826 347.4H723.126V343.92ZM737.31 341.54C740.45 341.54 743.09 343.7 743.09 346.92C743.09 350.14 740.45 352.3 737.31 352.3C734.17 352.3 731.53 350.14 731.53 346.92C731.53 343.7 734.17 341.54 737.31 341.54ZM737.31 348.76C738.29 348.76 738.97 347.9 738.97 346.92C738.97 345.94 738.29 345.08 737.31 345.08C736.33 345.08 735.65 345.94 735.65 346.92C735.65 347.9 736.33 348.76 737.31 348.76ZM751.638 341.72C751.958 341.72 752.118 341.74 752.378 341.78L752.238 346.3H751.638C749.798 346.3 748.398 346.78 748.398 349.02V352H744.098V341.84H748.398V343.94C748.958 342.66 749.918 341.72 751.638 341.72ZM760.681 341.72C761.001 341.72 761.161 341.74 761.421 341.78L761.281 346.3H760.681C758.841 346.3 757.441 346.78 757.441 349.02V352H753.141V341.84H757.441V343.94C758.001 342.66 758.961 341.72 760.681 341.72ZM767.564 341.54C770.704 341.54 773.344 343.7 773.344 346.92C773.344 350.14 770.704 352.3 767.564 352.3C764.424 352.3 761.784 350.14 761.784 346.92C761.784 343.7 764.424 341.54 767.564 341.54ZM767.564 348.76C768.544 348.76 769.224 347.9 769.224 346.92C769.224 345.94 768.544 345.08 767.564 345.08C766.584 345.08 765.904 345.94 765.904 346.92C765.904 347.9 766.584 348.76 767.564 348.76ZM773.952 349.4L777.992 348.6C778.172 349.12 778.712 349.4 779.212 349.4C779.772 349.4 780.012 349.2 780.012 349C780.012 348.68 779.732 348.62 779.192 348.56L777.172 348.24C775.212 347.94 774.072 347.02 774.072 345.16C774.072 342.8 776.272 341.54 778.832 341.54C781.632 341.54 783.332 342.5 783.872 344.28L780.112 345.02C780.032 344.74 779.632 344.22 778.892 344.22C778.412 344.22 778.172 344.42 778.172 344.62C778.172 344.78 778.292 344.94 778.692 345.02L780.972 345.44C783.152 345.84 784.112 347.08 784.112 348.84C784.112 351.1 781.912 352.3 779.192 352.3C776.512 352.3 774.472 351.42 773.952 349.4Z" fill="white"/>
<rect x="819" y="320" width="53" height="53" rx="26.5" fill="black"/>
<path d="M836 352L845.5 361.5" stroke="white" stroke-width="1.5" stroke-linecap="round"/>
<path d="M837 348L840.5 351.5" stroke="white" stroke-width="1.5" stroke-linecap="round"/>
<path d="M848.335 347V357.507C848.388 357.907 848.255 358.333 847.948 358.613C847.825 358.737 847.678 358.835 847.517 358.902C847.356 358.969 847.183 359.003 847.008 359.003C846.834 359.003 846.661 358.969 846.499 358.902C846.338 358.835 846.191 358.737 846.068 358.613L843.388 355.933C843.243 355.791 843.132 355.617 843.065 355.425C842.998 355.233 842.976 355.028 843.001 354.827V347H842.961L835.281 337.16C835.065 336.882 834.967 336.53 835.01 336.18C835.052 335.83 835.231 335.511 835.508 335.293C835.761 335.107 836.041 335 836.335 335H855.001C855.295 335 855.575 335.107 855.828 335.293C856.105 335.511 856.284 335.83 856.327 336.18C856.369 336.53 856.271 336.882 856.055 337.16L848.375 347H848.335Z" fill="white"/>
<rect x="418" y="424" width="384" height="315" rx="50" fill="#D9D9D9"/>
<rect x="1280" y="424" width="384" height="315" rx="50" fill="#D9D9D9"/>
<rect x="849" y="424" width="384" height="315" rx="50" fill="#D9D9D9"/>
<path d="M1600.33 355.333C1598.85 355.333 1597.67 356.52 1597.67 358C1597.67 358.707 1597.95 359.386 1598.45 359.886C1598.95 360.386 1599.63 360.667 1600.33 360.667C1601.04 360.667 1601.72 360.386 1602.22 359.886C1602.72 359.386 1603 358.707 1603 358C1603 357.293 1602.72 356.614 1602.22 356.114C1601.72 355.614 1601.04 355.333 1600.33 355.333ZM1579 334V336.667H1581.67L1586.47 346.787L1584.65 350.053C1584.45 350.427 1584.33 350.867 1584.33 351.333C1584.33 352.041 1584.61 352.719 1585.11 353.219C1585.61 353.719 1586.29 354 1587 354H1603V351.333H1587.56C1587.47 351.333 1587.39 351.298 1587.32 351.236C1587.26 351.173 1587.23 351.088 1587.23 351C1587.23 350.933 1587.24 350.88 1587.27 350.84L1588.47 348.667H1598.4C1599.4 348.667 1600.28 348.107 1600.73 347.293L1605.51 338.667C1605.6 338.453 1605.67 338.227 1605.67 338C1605.67 337.646 1605.53 337.307 1605.28 337.057C1605.03 336.807 1604.69 336.667 1604.33 336.667H1584.61L1583.36 334M1587 355.333C1585.52 355.333 1584.33 356.52 1584.33 358C1584.33 358.707 1584.61 359.386 1585.11 359.886C1585.61 360.386 1586.29 360.667 1587 360.667C1587.71 360.667 1588.39 360.386 1588.89 359.886C1589.39 359.386 1589.67 358.707 1589.67 358C1589.67 357.293 1589.39 356.614 1588.89 356.114C1588.39 355.614 1587.71 355.333 1587 355.333Z" fill="white"/>
<path d="M1639.58 351.42V357H1623.11L1623.2 356.82V352.59L1630.49 346.44C1631.93 345.21 1632.83 344.37 1632.83 343.35C1632.83 342.42 1632.23 341.82 1631.33 341.82C1630.28 341.82 1629.44 342.51 1629.32 344.22L1622.99 343.11C1623.23 338.91 1626.47 336.45 1631.15 336.45C1635.83 336.45 1639.19 338.91 1639.19 343.41C1639.19 346.23 1637.54 347.7 1635.32 349.56L1633.07 351.42H1639.58Z" fill="white"/>
<rect x="1558" y="320" width="106" height="53" rx="26.5" fill="black"/>
<rect x="285" y="158" width="1512" height="90" fill="black"/>
<rect x="418" y="320" width="390" height="49" rx="24.5" fill="black"/>
<rect x="425" y="327" width="103" height="36" rx="18" fill="white"/>
<path d="M459.353 342.32H455.273V352H450.853V342.32H446.773V338.6H459.353V342.32ZM464.641 341.54C467.781 341.54 470.421 343.7 470.421 346.92C470.421 350.14 467.781 352.3 464.641 352.3C461.501 352.3 458.861 350.14 458.861 346.92C458.861 343.7 461.501 341.54 464.641 341.54ZM464.641 348.76C465.621 348.76 466.301 347.9 466.301 346.92C466.301 345.94 465.621 345.08 464.641 345.08C463.661 345.08 462.981 345.94 462.981 346.92C462.981 347.9 463.661 348.76 464.641 348.76ZM482.989 336.6V352H478.689V351.16C478.009 351.88 477.089 352.3 475.909 352.3C473.009 352.3 471.029 350.14 471.029 346.92C471.029 343.7 473.009 341.54 475.909 341.54C477.089 341.54 478.009 341.96 478.689 342.68V336.6H482.989ZM477.009 348.76C478.029 348.76 478.689 347.9 478.689 346.92C478.689 345.94 478.029 345.08 477.009 345.08C475.969 345.08 475.349 345.94 475.349 346.92C475.349 347.9 475.969 348.76 477.009 348.76ZM489.777 341.54C492.917 341.54 495.557 343.7 495.557 346.92C495.557 350.14 492.917 352.3 489.777 352.3C486.637 352.3 483.997 350.14 483.997 346.92C483.997 343.7 486.637 341.54 489.777 341.54ZM489.777 348.76C490.757 348.76 491.437 347.9 491.437 346.92C491.437 345.94 490.757 345.08 489.777 345.08C488.797 345.08 488.117 345.94 488.117 346.92C488.117 347.9 488.797 348.76 489.777 348.76ZM496.165 349.4L500.205 348.6C500.385 349.12 500.925 349.4 501.425 349.4C501.985 349.4 502.225 349.2 502.225 349C502.225 348.68 501.945 348.62 501.405 348.56L499.385 348.24C497.425 347.94 496.285 347.02 496.285 345.16C496.285 342.8 498.485 341.54 501.045 341.54C503.845 341.54 505.545 342.5 506.085 344.28L502.325 345.02C502.245 344.74 501.845 344.22 501.105 344.22C500.625 344.22 500.385 344.42 500.385 344.62C500.385 344.78 500.505 344.94 500.905 345.02L503.185 345.44C505.365 345.84 506.325 347.08 506.325 348.84C506.325 351.1 504.125 352.3 501.405 352.3C498.725 352.3 496.685 351.42 496.165 349.4Z" fill="black"/>
<rect x="535" y="327" width="155" height="36" rx="18" fill="black"/>
<path d="M571.646 346.04L576.086 347.08C575.546 350.26 572.926 352.3 569.046 352.3C564.946 352.3 561.746 349.22 561.746 345.3C561.746 341.38 564.946 338.3 569.046 338.3C572.486 338.3 575.486 340.3 576.066 343.4L571.626 344.4C571.326 343 570.446 342.22 569.046 342.22C567.446 342.22 566.186 343.56 566.186 345.3C566.186 347.04 567.446 348.38 569.046 348.38C570.426 348.38 571.306 347.54 571.646 346.04ZM582.458 341.54C585.638 341.54 587.478 343.12 587.478 345.94V352H583.298V351.36C582.618 351.92 581.658 352.3 580.398 352.3C578.218 352.3 576.778 350.98 576.778 348.98C576.778 346.92 578.398 345.68 581.398 345.68H583.298V345.38C583.298 344.88 582.938 344.54 582.458 344.54C581.958 344.54 581.658 344.78 581.558 345.38L577.518 344.54C578.078 342.58 579.798 341.54 582.458 341.54ZM582.218 349.32C582.738 349.32 583.298 349.02 583.298 348.22V347.8H582.518C581.838 347.8 581.418 348.12 581.418 348.6C581.418 349.06 581.778 349.32 582.218 349.32ZM602.702 341.54C604.942 341.54 606.442 343.18 606.442 345.66V352H602.142V346.58C602.142 345.84 601.662 345.34 601.022 345.34C600.282 345.34 599.762 346 599.762 346.86V352H595.462V346.58C595.462 345.84 594.982 345.34 594.302 345.34C593.582 345.34 593.082 346 593.082 346.86V352H588.782V341.84H593.082V342.96C593.722 342.08 594.682 341.54 596.022 341.54C597.502 341.54 598.662 342.2 599.282 343.36C600.022 342.24 601.182 341.54 602.702 341.54ZM610.243 336.62C611.623 336.62 612.603 337.68 612.603 338.9C612.603 340.2 611.623 341.18 610.243 341.18C608.863 341.18 607.903 340.2 607.903 338.9C607.903 337.68 608.863 336.62 610.243 336.62ZM612.403 352H608.103V341.84H612.403V352ZM613.597 349.4L617.637 348.6C617.817 349.12 618.357 349.4 618.857 349.4C619.417 349.4 619.657 349.2 619.657 349C619.657 348.68 619.377 348.62 618.837 348.56L616.817 348.24C614.857 347.94 613.717 347.02 613.717 345.16C613.717 342.8 615.917 341.54 618.477 341.54C621.277 341.54 622.977 342.5 623.517 344.28L619.757 345.02C619.677 344.74 619.277 344.22 618.537 344.22C618.057 344.22 617.817 344.42 617.817 344.62C617.817 344.78 617.937 344.94 618.337 345.02L620.617 345.44C622.797 345.84 623.757 347.08 623.757 348.84C623.757 351.1 621.557 352.3 618.837 352.3C616.157 352.3 614.117 351.42 613.597 349.4ZM635.399 347.94H628.539C628.759 348.66 629.239 349.12 630.039 349.12C630.699 349.12 631.279 348.8 631.479 348.3L635.299 349.04C634.479 351.24 632.539 352.3 630.039 352.3C626.939 352.3 624.359 350.14 624.359 346.92C624.359 343.7 626.939 341.54 630.019 341.54C633.199 341.54 635.399 343.5 635.399 347.32V347.94ZM630.019 344.76C629.299 344.76 628.799 345.16 628.559 345.78H631.319C631.119 345.12 630.599 344.76 630.019 344.76ZM643.479 348.42L644.199 351.56C643.939 351.7 642.879 352.3 641.179 352.3C638.399 352.3 637.019 350.68 637.019 348.24V345.14H635.799V341.84H637.019V338.6H641.319V341.84H643.699V345.14H641.319V347.7C641.319 348.42 641.679 348.66 642.399 348.66C642.799 348.66 643.239 348.56 643.479 348.42ZM650.368 341.54C653.548 341.54 655.388 343.12 655.388 345.94V352H651.208V351.36C650.528 351.92 649.568 352.3 648.308 352.3C646.128 352.3 644.688 350.98 644.688 348.98C644.688 346.92 646.308 345.68 649.308 345.68H651.208V345.38C651.208 344.88 650.848 344.54 650.368 344.54C649.868 344.54 649.568 344.78 649.468 345.38L645.428 344.54C645.988 342.58 647.708 341.54 650.368 341.54ZM650.128 349.32C650.648 349.32 651.208 349.02 651.208 348.22V347.8H650.428C649.748 347.8 649.328 348.12 649.328 348.6C649.328 349.06 649.688 349.32 650.128 349.32ZM656.292 349.4L660.332 348.6C660.512 349.12 661.052 349.4 661.552 349.4C662.112 349.4 662.352 349.2 662.352 349C662.352 348.68 662.072 348.62 661.532 348.56L659.512 348.24C657.552 347.94 656.412 347.02 656.412 345.16C656.412 342.8 658.612 341.54 661.172 341.54C663.972 341.54 665.672 342.5 666.212 344.28L662.452 345.02C662.372 344.74 661.972 344.22 661.232 344.22C660.752 344.22 660.512 344.42 660.512 344.62C660.512 344.78 660.632 344.94 661.032 345.02L663.312 345.44C665.492 345.84 666.452 347.08 666.452 348.84C666.452 351.1 664.252 352.3 661.532 352.3C658.852 352.3 656.812 351.42 656.292 349.4Z" fill="white"/>
<rect x="697" y="327" width="105" height="36" rx="18" fill="black"/>
<path d="M723.126 343.92H730.626C730.686 344.48 730.726 344.88 730.726 345.3C730.726 349.5 727.726 352.3 723.486 352.3C719.326 352.3 716.086 349.22 716.086 345.3C716.086 341.38 719.326 338.3 723.486 338.3C726.786 338.3 729.346 339.84 730.226 342.3L725.586 343.34C725.166 342.52 724.466 342.22 723.486 342.22C721.726 342.22 720.526 343.56 720.526 345.3C720.526 347.04 721.726 348.38 723.486 348.38C724.546 348.38 725.326 348.02 725.826 347.4H723.126V343.92ZM737.31 341.54C740.45 341.54 743.09 343.7 743.09 346.92C743.09 350.14 740.45 352.3 737.31 352.3C734.17 352.3 731.53 350.14 731.53 346.92C731.53 343.7 734.17 341.54 737.31 341.54ZM737.31 348.76C738.29 348.76 738.97 347.9 738.97 346.92C738.97 345.94 738.29 345.08 737.31 345.08C736.33 345.08 735.65 345.94 735.65 346.92C735.65 347.9 736.33 348.76 737.31 348.76ZM751.638 341.72C751.958 341.72 752.118 341.74 752.378 341.78L752.238 346.3H751.638C749.798 346.3 748.398 346.78 748.398 349.02V352H744.098V341.84H748.398V343.94C748.958 342.66 749.918 341.72 751.638 341.72ZM760.681 341.72C761.001 341.72 761.161 341.74 761.421 341.78L761.281 346.3H760.681C758.841 346.3 757.441 346.78 757.441 349.02V352H753.141V341.84H757.441V343.94C758.001 342.66 758.961 341.72 760.681 341.72ZM767.564 341.54C770.704 341.54 773.344 343.7 773.344 346.92C773.344 350.14 770.704 352.3 767.564 352.3C764.424 352.3 761.784 350.14 761.784 346.92C761.784 343.7 764.424 341.54 767.564 341.54ZM767.564 348.76C768.544 348.76 769.224 347.9 769.224 346.92C769.224 345.94 768.544 345.08 767.564 345.08C766.584 345.08 765.904 345.94 765.904 346.92C765.904 347.9 766.584 348.76 767.564 348.76ZM773.952 349.4L777.992 348.6C778.172 349.12 778.712 349.4 779.212 349.4C779.772 349.4 780.012 349.2 780.012 349C780.012 348.68 779.732 348.62 779.192 348.56L777.172 348.24C775.212 347.94 774.072 347.02 774.072 345.16C774.072 342.8 776.272 341.54 778.832 341.54C781.632 341.54 783.332 342.5 783.872 344.28L780.112 345.02C780.032 344.74 779.632 344.22 778.892 344.22C778.412 344.22 778.172 344.42 778.172 344.62C778.172 344.78 778.292 344.94 778.692 345.02L780.972 345.44C783.152 345.84 784.112 347.08 784.112 348.84C784.112 351.1 781.912 352.3 779.192 352.3C776.512 352.3 774.472 351.42 773.952 349.4Z" fill="white"/>
<rect x="819" y="320" width="53" height="53" rx="26.5" fill="black"/>
<path d="M836 352L845.5 361.5" stroke="white" stroke-width="1.5" stroke-linecap="round"/>
<path d="M837 348L840.5 351.5" stroke="white" stroke-width="1.5" stroke-linecap="round"/>
<path d="M848.335 347V357.507C848.388 357.907 848.255 358.333 847.948 358.613C847.825 358.737 847.678 358.835 847.517 358.902C847.356 358.969 847.183 359.003 847.008 359.003C846.834 359.003 846.661 358.969 846.499 358.902C846.338 358.835 846.191 358.737 846.068 358.613L843.388 355.933C843.243 355.791 843.132 355.617 843.065 355.425C842.998 355.233 842.976 355.028 843.001 354.827V347H842.961L835.281 337.16C835.065 336.882 834.967 336.53 835.01 336.18C835.052 335.83 835.231 335.511 835.508 335.293C835.761 335.107 836.041 335 836.335 335H855.001C855.295 335 855.575 335.107 855.828 335.293C856.105 335.511 856.284 335.83 856.327 336.18C856.369 336.53 856.271 336.882 856.055 337.16L848.375 347H848.335Z" fill="white"/>
<rect x="418" y="424" width="384" height="315" rx="50" fill="#D9D9D9"/>
<rect x="1280" y="424" width="384" height="315" rx="50" fill="#D9D9D9"/>
<rect x="849" y="424" width="384" height="315" rx="50" fill="#D9D9D9"/>
<path d="M1600.33 355.333C1598.85 355.333 1597.67 356.52 1597.67 358C1597.67 358.707 1597.95 359.386 1598.45 359.886C1598.95 360.386 1599.63 360.667 1600.33 360.667C1601.04 360.667 1601.72 360.386 1602.22 359.886C1602.72 359.386 1603 358.707 1603 358C1603 357.293 1602.72 356.614 1602.22 356.114C1601.72 355.614 1601.04 355.333 1600.33 355.333ZM1579 334V336.667H1581.67L1586.47 346.787L1584.65 350.053C1584.45 350.427 1584.33 350.867 1584.33 351.333C1584.33 352.041 1584.61 352.719 1585.11 353.219C1585.61 353.719 1586.29 354 1587 354H1603V351.333H1587.56C1587.47 351.333 1587.39 351.298 1587.32 351.236C1587.26 351.173 1587.23 351.088 1587.23 351C1587.23 350.933 1587.24 350.88 1587.27 350.84L1588.47 348.667H1598.4C1599.4 348.667 1600.28 348.107 1600.73 347.293L1605.51 338.667C1605.6 338.453 1605.67 338.227 1605.67 338C1605.67 337.646 1605.53 337.307 1605.28 337.057C1605.03 336.807 1604.69 336.667 1604.33 336.667H1584.61L1583.36 334M1587 355.333C1585.52 355.333 1584.33 356.52 1584.33 358C1584.33 358.707 1584.61 359.386 1585.11 359.886C1585.61 360.386 1586.29 360.667 1587 360.667C1587.71 360.667 1588.39 360.386 1588.89 359.886C1589.39 359.386 1589.67 358.707 1589.67 358C1589.67 357.293 1589.39 356.614 1588.89 356.114C1588.39 355.614 1587.71 355.333 1587 355.333Z" fill="white"/>
<path d="M1639.58 351.42V357H1623.11L1623.2 356.82V352.59L1630.49 346.44C1631.93 345.21 1632.83 344.37 1632.83 343.35C1632.83 342.42 1632.23 341.82 1631.33 341.82C1630.28 341.82 1629.44 342.51 1629.32 344.22L1622.99 343.11C1623.23 338.91 1626.47 336.45 1631.15 336.45C1635.83 336.45 1639.19 338.91 1639.19 343.41C1639.19 346.23 1637.54 347.7 1635.32 349.56L1633.07 351.42H1639.58Z" fill="white"/>
</g>
<defs>
<clipPath id="clip0_375_397">
<rect width="1512" height="908" fill="white" transform="translate(285 158)"/>
</clipPath>
</defs>
</svg>
