<svg width="24" height="24" viewBox="0 0 24 24" fill="none" xmlns="http://www.w3.org/2000/svg">
<path d="M12 3H10.42L12.52 0H10.08L7.27999 4L10.08 8H12.52L10.42 5H12C13.8433 4.99979 15.6301 5.6361 17.0583 6.80136C18.4865 7.96661 19.4685 9.58932 19.8383 11.3951C20.2081 13.2009 19.9429 15.079 19.0877 16.7118C18.2324 18.3447 16.8396 19.6321 15.1446 20.3564C13.4496 21.0808 11.5565 21.1976 9.78532 20.6871C8.01416 20.1766 6.47361 19.0701 5.42415 17.5548C4.37469 16.0394 3.8807 14.2082 4.02571 12.3706C4.17072 10.5331 4.94583 8.80197 6.21999 7.47L5.00999 5.85C3.35232 7.47087 2.30934 9.61736 2.05948 11.9223C1.80962 14.2272 2.3684 16.5473 3.64023 18.4858C4.91206 20.4242 6.81792 21.8605 9.03177 22.5489C11.2456 23.2374 13.6299 23.1352 15.7767 22.2599C17.9236 21.3846 19.6996 19.7905 20.8009 17.7504C21.9022 15.7102 22.2605 13.3508 21.8143 11.0757C21.3682 8.80062 20.1454 6.75122 18.3552 5.27811C16.5649 3.805 14.3184 2.99971 12 3Z" fill="white"/>
<path d="M8.3197 17V11.339L9.0847 12.077H7.1497V10.7H10.1017V17H8.3197ZM13.8302 17.126C13.2902 17.126 12.8102 16.997 12.3902 16.739C11.9762 16.481 11.6492 16.109 11.4092 15.623C11.1692 15.137 11.0492 14.546 11.0492 13.85C11.0492 13.154 11.1692 12.563 11.4092 12.077C11.6492 11.591 11.9762 11.219 12.3902 10.961C12.8102 10.703 13.2902 10.574 13.8302 10.574C14.3642 10.574 14.8382 10.703 15.2522 10.961C15.6722 11.219 16.0022 11.591 16.2422 12.077C16.4822 12.563 16.6022 13.154 16.6022 13.85C16.6022 14.546 16.4822 15.137 16.2422 15.623C16.0022 16.109 15.6722 16.481 15.2522 16.739C14.8382 16.997 14.3642 17.126 13.8302 17.126ZM13.8302 15.668C14.0222 15.668 14.1902 15.608 14.3342 15.488C14.4842 15.368 14.6012 15.176 14.6852 14.912C14.7692 14.642 14.8112 14.288 14.8112 13.85C14.8112 13.406 14.7692 13.052 14.6852 12.788C14.6012 12.524 14.4842 12.332 14.3342 12.212C14.1902 12.092 14.0222 12.032 13.8302 12.032C13.6382 12.032 13.4672 12.092 13.3172 12.212C13.1732 12.332 13.0562 12.524 12.9662 12.788C12.8822 13.052 12.8402 13.406 12.8402 13.85C12.8402 14.288 12.8822 14.642 12.9662 14.912C13.0562 15.176 13.1732 15.368 13.3172 15.488C13.4672 15.608 13.6382 15.668 13.8302 15.668Z" fill="white"/>
</svg>
