<svg width="24" height="24" viewBox="0 0 24 24" fill="none" xmlns="http://www.w3.org/2000/svg">
<g clip-path="url(#clip0_168_11)">
<mask id="mask0_168_11" style="mask-type:luminance" maskUnits="userSpaceOnUse" x="0" y="0" width="24" height="24">
<path d="M16.9526 23.8681C17.1428 23.9428 17.3463 23.9773 17.5503 23.9694C17.7543 23.9615 17.9546 23.9114 18.1385 23.8221L23.0605 21.4352C23.314 21.3122 23.5279 21.1195 23.6776 20.8794C23.8273 20.6393 23.9066 20.3615 23.9066 20.0779V3.89249C23.9066 3.60895 23.8272 3.33116 23.6776 3.09107C23.5279 2.85099 23.314 2.65837 23.0605 2.53536L18.1386 0.148306C17.8605 0.0134666 17.5477 -0.0309212 17.2434 0.0212843C16.9392 0.0734898 16.6585 0.219708 16.4404 0.439708L7.01783 9.1038L2.91346 5.96377C2.72832 5.82213 2.49982 5.75028 2.26761 5.76068C2.03541 5.77109 1.81414 5.8631 1.64221 6.02075L0.325864 7.22765C-0.108199 7.62553 -0.108668 8.31379 0.324739 8.71234L3.88414 11.9852L0.324739 15.258C-0.108668 15.6567 -0.108199 16.3448 0.325864 16.7428L1.64221 17.9496C1.81413 18.1073 2.03539 18.1993 2.2676 18.2097C2.49981 18.2201 2.72831 18.1483 2.91346 18.0067L7.01783 14.8665L16.4404 23.5306C16.586 23.6777 16.7605 23.7926 16.9526 23.8681M17.9336 6.51539L10.7841 11.9852L17.9336 17.455V6.51539Z" fill="white"/>
</mask>
<g mask="url(#mask0_168_11)">
<path d="M23.0751 2.53894L18.1493 0.148576C17.8711 0.0135855 17.5582 -0.0309198 17.2538 0.0212186C16.9494 0.0733571 16.6686 0.219561 16.4503 0.4396L0.324914 15.2579C-0.108773 15.6565 -0.108211 16.3447 0.326039 16.7427L1.64323 17.9495C1.8153 18.1072 2.0367 18.1992 2.26904 18.2096C2.50139 18.2201 2.73002 18.1482 2.91532 18.0066L22.3339 3.15906C22.9854 2.66102 23.9211 3.1293 23.9211 3.95343V3.89579C23.9211 3.6123 23.8417 3.33458 23.692 3.09455C23.5424 2.85452 23.3286 2.66194 23.0751 2.53894Z" fill="#0065A9"/>
</g>
<mask id="mask1_168_11" style="mask-type:luminance" maskUnits="userSpaceOnUse" x="0" y="0" width="24" height="24">
<path d="M16.9526 23.8681C17.1428 23.9428 17.3463 23.9773 17.5503 23.9694C17.7543 23.9615 17.9546 23.9114 18.1385 23.8221L23.0605 21.4352C23.314 21.3122 23.5279 21.1195 23.6776 20.8794C23.8273 20.6393 23.9066 20.3615 23.9066 20.0779V3.89249C23.9066 3.60895 23.8272 3.33116 23.6776 3.09107C23.5279 2.85099 23.314 2.65837 23.0605 2.53536L18.1386 0.148306C17.8605 0.0134666 17.5477 -0.0309212 17.2434 0.0212843C16.9392 0.0734898 16.6585 0.219708 16.4404 0.439708L7.01783 9.1038L2.91346 5.96377C2.72832 5.82213 2.49982 5.75028 2.26761 5.76068C2.03541 5.77109 1.81414 5.8631 1.64221 6.02075L0.325864 7.22765C-0.108199 7.62553 -0.108668 8.31379 0.324739 8.71234L3.88414 11.9852L0.324739 15.258C-0.108668 15.6567 -0.108199 16.3448 0.325864 16.7428L1.64221 17.9496C1.81413 18.1073 2.03539 18.1993 2.2676 18.2097C2.49981 18.2201 2.72831 18.1483 2.91346 18.0067L7.01783 14.8665L16.4404 23.5306C16.586 23.6777 16.7605 23.7926 16.9526 23.8681M17.9336 6.51539L10.7841 11.9852L17.9336 17.455V6.51539Z" fill="white"/>
</mask>
<g mask="url(#mask1_168_11)">
<path d="M23.0751 21.4314L18.1493 23.8218C17.8711 23.9567 17.5582 24.0012 17.2538 23.949C16.9494 23.8969 16.6687 23.7507 16.4503 23.5307L0.324914 8.71245C-0.108773 8.3139 -0.108211 7.62565 0.326039 7.22776L1.64323 6.02086C1.81531 5.86318 2.03672 5.77116 2.26906 5.76076C2.5014 5.75035 2.73003 5.82221 2.91532 5.96388L22.3339 20.8113C22.9854 21.3093 23.9211 20.841 23.9211 20.0168V20.0746C23.9211 20.358 23.8417 20.6358 23.692 20.8758C23.5424 21.1158 23.3286 21.3084 23.0751 21.4314Z" fill="#007ACC"/>
</g>
<mask id="mask2_168_11" style="mask-type:luminance" maskUnits="userSpaceOnUse" x="0" y="0" width="24" height="24">
<path d="M16.9526 23.8681C17.1428 23.9428 17.3463 23.9773 17.5503 23.9694C17.7543 23.9615 17.9546 23.9114 18.1385 23.8221L23.0605 21.4352C23.314 21.3122 23.5279 21.1195 23.6776 20.8794C23.8273 20.6393 23.9066 20.3615 23.9066 20.0779V3.89249C23.9066 3.60895 23.8272 3.33116 23.6776 3.09107C23.5279 2.85099 23.314 2.65837 23.0605 2.53536L18.1386 0.148306C17.8605 0.0134666 17.5477 -0.0309212 17.2434 0.0212843C16.9392 0.0734898 16.6585 0.219708 16.4404 0.439708L7.01783 9.1038L2.91346 5.96377C2.72832 5.82213 2.49982 5.75028 2.26761 5.76068C2.03541 5.77109 1.81414 5.8631 1.64221 6.02075L0.325864 7.22765C-0.108199 7.62553 -0.108668 8.31379 0.324739 8.71234L3.88414 11.9852L0.324739 15.258C-0.108668 15.6567 -0.108199 16.3448 0.325864 16.7428L1.64221 17.9496C1.81413 18.1073 2.03539 18.1993 2.2676 18.2097C2.49981 18.2201 2.72831 18.1483 2.91346 18.0067L7.01783 14.8665L16.4404 23.5306C16.586 23.6777 16.7605 23.7926 16.9526 23.8681M17.9336 6.51539L10.7841 11.9852L17.9336 17.455V6.51539Z" fill="white"/>
</mask>
<g mask="url(#mask2_168_11)">
<path d="M18.1338 23.8231C17.8555 23.9581 17.5425 24.0025 17.2381 23.9503C16.9337 23.8981 16.6529 23.7519 16.4346 23.5318C16.9859 24.0874 17.9288 23.6939 17.9288 22.9079V1.06461C17.9288 0.278652 16.9859 -0.114891 16.4346 0.440794C16.6529 0.220714 16.9337 0.074456 17.2381 0.0222513C17.5425 -0.0299534 17.8555 0.0144756 18.1338 0.149393L23.0588 2.53645C23.3123 2.65939 23.5263 2.85198 23.6761 3.09207C23.8258 3.33216 23.9053 3.60999 23.9053 3.89358V20.0791C23.9053 20.6579 23.5763 21.1855 23.0588 21.4363L18.1338 23.8231Z" fill="#1F9CF0"/>
</g>
</g>
<defs>
<clipPath id="clip0_168_11">
<rect width="24" height="24" fill="white"/>
</clipPath>
</defs>
</svg>
